<svg xmlns="http://www.w3.org/2000/svg" width="285" height="61.24" viewBox="0 0 285 61.24">
  <g id="logo_Exacta" transform="translate(0 0)">
    <g id="LOGO_H" data-name="LOGO H" transform="translate(76.756 20.796)">
      <path id="Caminho_11998" data-name="Caminho 11998" d="M363.85,104.64h24.2v4.536h-18.3v8.293h18.3v4.485h-18.3v11.421h18.3v4.485h-24.2Z" transform="translate(-363.85 -103.362)" fill="#5a5a5a"/>
      <path id="Caminho_11999" data-name="Caminho 11999" d="M507.147,160.13h7.232l6.3,6.118,6.17-6.118h7.172l-9.847,9.7,11.9,11.813h-7.113l-8.343-8.227-8.438,8.227H505.16l11.934-11.841Z" transform="translate(-475.35 -147.146)" fill="#5a5a5a"/>
      <path id="Caminho_12000" data-name="Caminho 12000" d="M689.664,98.58l20.617,34.5H704.03l-5.063-8.5H680.434l-5.012,8.5h-6.2Zm-.017,10.368L682.662,120.8h14.047Z" transform="translate(-604.801 -98.58)" fill="#5a5a5a"/>
      <path id="Caminho_12001" data-name="Caminho 12001" d="M909.334,101.88v5.137a37.434,37.434,0,0,0-12.991-2.633,21.414,21.414,0,0,0-12.818,3.738q-5.21,3.738-5.21,9.183,0,5.548,5.331,9.259T897,130.276a31.367,31.367,0,0,0,12.339-2.791v5.189a33.957,33.957,0,0,1-12.854,2.4,28.729,28.729,0,0,1-17.343-5.223q-7.2-5.223-7.2-12.6,0-7.242,7.078-12.4a28.155,28.155,0,0,1,17.052-5.16A43.5,43.5,0,0,1,909.334,101.88Z" transform="translate(-764.756 -99.456)" fill="#5a5a5a"/>
      <path id="Caminho_12002" data-name="Caminho 12002" d="M1075.441,104.64h26.7v4.536h-10.419v28.69h-5.907v-28.69H1075.43Z" transform="translate(-925.319 -103.362)" fill="#5a5a5a"/>
      <path id="Caminho_12003" data-name="Caminho 12003" d="M1231.832,157.936h5.964v21.517h-5.964v-4.28a13.882,13.882,0,0,1-10.8,4.886,14.317,14.317,0,0,1-9.546-3.337,10.25,10.25,0,0,1-3.96-8.109,10.079,10.079,0,0,1,3.993-7.888,14.07,14.07,0,0,1,9.375-3.375,14.84,14.84,0,0,1,6.305,1.382,11.8,11.8,0,0,1,4.628,3.6Zm.823,10.822a6.164,6.164,0,0,0-2.782-5.046,11.54,11.54,0,0,0-13.254-.013,6.011,6.011,0,0,0-2.814,4.9,6.385,6.385,0,0,0,2.742,5.187,10.516,10.516,0,0,0,6.66,2.139,10.646,10.646,0,0,0,6.662-2.124,6.247,6.247,0,0,0,2.787-5.046Z" transform="translate(-1029.552 -144.952)" fill="#5a5a5a"/>
    </g>
    <g id="ICONE" transform="translate(0 0)">
      <path id="Caminho_12054" data-name="Caminho 12054" d="M66.347,0,78.372,1.318a64.4,64.4,0,0,1-11.8,16.174A63.77,63.77,0,0,1,23.15,36.267l2.5-6.86A58.348,58.348,0,0,0,66.347,0" transform="translate(-18.266 0)" fill="#fff"/>
      <path id="Caminho_12055" data-name="Caminho 12055" d="M25.65,29.407l-2.5,6.877A63.78,63.78,0,0,0,66.575,17.492a64.4,64.4,0,0,0,11.8-16.174L66.347,0a58.348,58.348,0,0,1-40.7,29.407Z" transform="translate(-18.266 0)" fill="#00a5de"/>
      <path id="Caminho_12056" data-name="Caminho 12056" d="M52.633,115.62l9.177,4.8a72.634,72.634,0,0,1-41.37,14.921q-1.527.063-3.046.063-3.5,0-6.943-.325l1.913-5.449h.211c.394,0,.732.013,1.1.013.179,0,.365,0,.57-.013A66.714,66.714,0,0,0,52.637,115.62" transform="translate(-8.246 -91.229)" fill="#fff"/>
      <path id="Caminho_12057" data-name="Caminho 12057" d="M14.213,129.634c-.211,0-.39.013-.57.013-.367,0-.7-.013-1.1-.013h-.211l-1.913,5.449q3.443.323,6.943.325,1.519,0,3.046-.063a72.634,72.634,0,0,0,41.37-14.921l-9.177-4.8a66.714,66.714,0,0,1-38.39,14.014Z" transform="translate(-8.222 -91.229)" fill="#fbbb21"/>
      <path id="Caminho_12058" data-name="Caminho 12058" d="M57.315,32.484A56.844,56.844,0,0,0,70.47,19H45.1A10.482,10.482,0,0,0,34.65,29.449V42.27a56.274,56.274,0,0,0,22.665-9.786Z" transform="translate(-27.34 -14.992)" fill="#5a5a5a"/>
      <path id="Caminho_12059" data-name="Caminho 12059" d="M88.591,27.75A66.641,66.641,0,0,1,78.383,40.882q-1.964,1.966-4.065,3.742l8.809,4.609,2.918,1.529-2.616,2a74.319,74.319,0,0,1-25.874,12.8l5.886,5.088,3.27,2.827-.175.034.023.021-4.242.829a86.255,86.255,0,0,1-10.191,1.359c-1.641.12-3.415.179-5.274.179a103.163,103.163,0,0,1-10.622-.578,10.493,10.493,0,0,0,10.117,7.814H82.68A10.48,10.48,0,0,0,93.139,72.685V36.353a10.461,10.461,0,0,0-4.548-8.6Z" transform="translate(-28.587 -21.896)" fill="#5a5a5a"/>
      <path id="Caminho_12060" data-name="Caminho 12060" d="M25.65,29.407l-2.5,6.877A63.78,63.78,0,0,0,66.575,17.492a64.4,64.4,0,0,0,11.8-16.174L66.347,0a58.348,58.348,0,0,1-40.7,29.407Z" transform="translate(-18.266 0)" fill="#00a5df"/>
      <path id="Caminho_12061" data-name="Caminho 12061" d="M14.213,129.634c-.211,0-.39.013-.57.013-.367,0-.7-.013-1.1-.013h-.211l-1.913,5.449q3.443.323,6.943.325,1.519,0,3.046-.063a72.634,72.634,0,0,0,41.37-14.921l-9.177-4.8a66.714,66.714,0,0,1-38.39,14.014Z" transform="translate(-8.222 -91.229)" fill="#fbbb21"/>
      <path id="Caminho_12062" data-name="Caminho 12062" d="M26.9,212.54l6.432,5.554a83.341,83.341,0,0,1-9.94,1.327c-1.633.118-3.352.173-5.118.173A101.91,101.91,0,0,1,0,217.879l1.519-4.371a104.052,104.052,0,0,0,10.632.557c1.709,0,3.363-.049,4.852-.158a77.117,77.117,0,0,0,9.892-1.367" transform="translate(0 -167.704)" fill="#d6272c"/>
    </g>
    <g id="Layer_11" data-name="Layer 11" transform="translate(226.042 1.584)">
      <text id="PUC-Rio" transform="translate(0 10)" fill="#5b5b5b" font-size="11" font-family="Arial" letter-spacing="0.07em"><tspan x="0" y="0">PUC-Rio</tspan></text>
    </g>
  </g>
</svg>
