<svg xmlns="http://www.w3.org/2000/svg" width="1087" height="95.39" viewBox="0 0 1087 95.39"><g transform="translate(-399 -122)"><g transform="translate(0 5)"><text transform="translate(845 161)" fill="#484848" font-size="34" font-family="HelveticaNeue-Bold, Helvetica Neue" font-weight="700" letter-spacing="0.02em"><tspan x="0" y="0">Ambiente de Pesquisa Computacional</tspan></text><text transform="translate(845 197)" fill="#484848" font-size="20" font-family="HelveticaNeue, Helvetica Neue" letter-spacing="0.02em"><tspan x="0" y="0">Ambiente de acesso simples e integrado aos recursos para HPC</tspan></text></g><rect width="95.39" height="2" rx="1" transform="translate(805 217.39) rotate(-90)" fill="#ffab08"/><g transform="translate(10.004 -336.998)"><g transform="translate(388.996 466.998)"><path d="M2252.842-720.145l15.537,1.7a83.168,83.168,0,0,1-15.243,20.891,82.38,82.38,0,0,1-56.087,24.256l3.228-8.868a75.352,75.352,0,0,0,52.565-37.983" transform="translate(-2190.739 720.146)" fill="#fff"/><path d="M2200.278-682.162l-3.229,8.868a82.38,82.38,0,0,0,56.087-24.256,83.166,83.166,0,0,0,15.243-20.891l-15.537-1.7a75.351,75.351,0,0,1-52.564,37.983Z" transform="translate(-2190.739 720.145)" fill="#0096d8"/><path d="M2238.835-604.522l11.853,6.205a93.827,93.827,0,0,1-53.432,19.271q-1.972.082-3.934.082-4.516,0-8.966-.42l2.471-7.037.264,0c.509,0,.945.016,1.419.016.231,0,.471,0,.733-.015a86.173,86.173,0,0,0,49.592-18.1" transform="translate(-2181.505 636.027)" fill="#fff"/><path d="M2189.239-586.423c-.262.011-.5.014-.733.014-.475,0-.91-.015-1.419-.015h-.264l-2.471,7.037q4.447.415,8.966.419,1.962,0,3.934-.082a93.827,93.827,0,0,0,53.436-19.271l-11.853-6.205A86.173,86.173,0,0,1,2189.239-586.423Z" transform="translate(-2181.501 636.028)" fill="#ffab08"/><path d="M2237.822-683.73a73.412,73.412,0,0,0,16.991-17.419h-32.767a13.536,13.536,0,0,0-13.5,13.5v16.56A72.668,72.668,0,0,0,2237.822-683.73Z" transform="translate(-2199.106 706.325)" fill="#484748"/><path d="M2277.767-692.394a86.111,86.111,0,0,1-13.186,16.954q-2.537,2.537-5.248,4.832l11.376,5.955,3.771,1.974-3.379,2.589a96.047,96.047,0,0,1-33.42,16.525l7.6,6.571,4.223,3.651-.227.044.03.027-5.48,1.07a110.866,110.866,0,0,1-13.162,1.755c-2.121.155-4.412.233-6.809.233a133.143,133.143,0,0,1-13.718-.747,13.551,13.551,0,0,0,13.063,10.106h46.929a13.537,13.537,0,0,0,13.5-13.5v-46.93A13.506,13.506,0,0,0,2277.767-692.394Z" transform="translate(-2200.264 699.956)" fill="#484748"/><path d="M2200.278-682.162l-3.229,8.868a82.38,82.38,0,0,0,56.087-24.256,83.166,83.166,0,0,0,15.243-20.891l-15.537-1.7a75.351,75.351,0,0,1-52.564,37.983Z" transform="translate(-2190.739 720.145)" fill="#0096d9"/><path d="M2189.239-586.423c-.262.011-.5.014-.733.014-.475,0-.91-.015-1.419-.015h-.264l-2.471,7.037q4.447.415,8.966.419,1.962,0,3.934-.082a93.827,93.827,0,0,0,53.436-19.271l-11.853-6.205A86.173,86.173,0,0,1,2189.239-586.423Z" transform="translate(-2181.501 636.028)" fill="#ffab08"/><path d="M2208.636-507.607l8.3,7.176a107.764,107.764,0,0,1-12.839,1.712c-2.108.153-4.33.225-6.611.225a131.7,131.7,0,0,1-23.6-2.215l1.962-5.648a134.18,134.18,0,0,0,13.734.72c2.208,0,4.343-.063,6.272-.2a99.925,99.925,0,0,0,12.776-1.767" transform="translate(-2173.892 565.519)" fill="#ca0e1f"/></g><g transform="translate(488.136 493.859)"><path d="M2537.743-615.507H2569v5.86h-23.64v10.708H2569v5.793h-23.64v14.752H2569v5.793h-31.253Z" transform="translate(-2537.743 617.157)" fill="#484748"/><path d="M2681.622-560.01h9.341l8.134,7.9,7.97-7.9h9.261l-12.718,12.54,15.375,15.244h-9.173l-10.777-10.622-10.885,10.622h-9.1l15.413-15.288Z" transform="translate(-2640.551 576.783)" fill="#484748"/><path d="M2869.52-621.564l26.628,44.557h-8.072l-6.545-10.981H2857.6l-6.472,10.981h-8.013Zm-.02,13.391-9.022,15.3h18.142Z" transform="translate(-2759.907 621.564)" fill="#484748"/><path d="M3094.138-617.616v6.635a48.36,48.36,0,0,0-16.778-3.4q-9.827,0-16.557,4.828t-6.73,11.859q0,7.166,6.884,11.962t17.243,4.8a40.527,40.527,0,0,0,15.937-3.6v6.7a43.866,43.866,0,0,1-16.6,3.1q-13.1,0-22.4-6.748t-9.3-16.272q0-9.355,9.142-16.019T3077-620.443A56.135,56.135,0,0,1,3094.138-617.616Z" transform="translate(-2907.396 620.748)" fill="#484748"/><path d="M3249.377-615.507h34.486v5.86h-13.458V-572.6h-7.615v-37.047h-13.414Z" transform="translate(-3055.475 617.157)" fill="#484748"/><path d="M3412.816-562.078h7.7v27.785h-7.7v-5.523a17.944,17.944,0,0,1-13.945,6.3,18.492,18.492,0,0,1-12.329-4.311,13.234,13.234,0,0,1-5.114-10.474q0-5.826,5.158-10.187a18.168,18.168,0,0,1,12.107-4.361,19.141,19.141,0,0,1,8.146,1.785,15.209,15.209,0,0,1,5.977,4.648Zm1.063,13.976a7.976,7.976,0,0,0-3.593-6.517,13.876,13.876,0,0,0-8.6-2.711,13.912,13.912,0,0,0-8.516,2.695q-3.637,2.694-3.637,6.331a8.25,8.25,0,0,0,3.548,6.7,13.575,13.575,0,0,0,8.6,2.762,13.756,13.756,0,0,0,8.6-2.745,8.038,8.038,0,0,0,3.592-6.518Z" transform="translate(-3151.546 578.85)" fill="#484748"/></g><text transform="translate(687.085 481.045)" fill="#484848" font-size="13" font-family="ArialMT, Arial" letter-spacing="0.067em"><tspan x="0" y="0">PUC-Rio</tspan></text></g></g></svg>