<?xml version="1.0" encoding="UTF-8"?>
<!-- Generator: visioncortex VTracer 0.6.3 -->
<svg version="1.1" xmlns="http://www.w3.org/2000/svg" width="1280" height="1263">
<path d="M0 0 C5.66 -0.02 11.32 -0.04 16.98 -0.05 C18.91 -0.06 20.83 -0.07 22.76 -0.08 C25.52 -0.09 28.29 -0.09 31.05 -0.1 C32.35 -0.11 32.35 -0.11 33.67 -0.11 C39.77 -0.11 39.77 -0.11 42 1 C42 1.66 42 2.32 42 3 C42.63 3 43.27 2.99 43.92 2.99 C50.51 2.94 57.09 2.91 63.68 2.89 C66.14 2.88 68.6 2.87 71.06 2.85 C74.59 2.82 78.12 2.81 81.65 2.8 C82.75 2.79 83.86 2.78 85 2.77 C86.53 2.77 86.53 2.77 88.09 2.77 C88.99 2.77 89.89 2.76 90.82 2.76 C93 3 93 3 95 5 C95.33 5.66 95.66 6.32 96 7 C96.97 6.98 97.93 6.95 98.93 6.93 C106.55 6.82 113.58 7.15 121 9 C126.45 10.2 131.97 10.75 137.5 11.4 C140.54 11.92 142.35 12.57 145 14 C148.17 14.17 148.17 14.17 151 14 C151 14.66 151 15.32 151 16 C151.98 15.97 151.98 15.97 152.98 15.93 C158.04 15.83 162.31 15.83 167 18 C167.33 18.66 167.66 19.32 168 20 C168.87 19.95 168.87 19.95 169.76 19.89 C175.01 19.71 178.4 20.17 183 23 C183.33 22.34 183.66 21.68 184 21 C184 21.99 184 22.98 184 24 C185.45 23.88 185.45 23.88 186.94 23.75 C191.81 23.71 195.74 25.83 200 28 C200.33 27.34 200.66 26.68 201 26 C201 26.66 201 27.32 201 28 C201.58 28.12 202.16 28.24 202.76 28.37 C210.58 30.04 217.83 32.42 225 36 C225.33 35.34 225.66 34.68 226 34 C226.33 34.66 226.66 35.32 227 36 C229.33 36.69 231.66 37.35 234 38 C234.99 38.66 235.98 39.32 237 40 C237.66 39.67 238.32 39.34 239 39 C239 39.66 239 40.32 239 41 C240.3 41.12 241.6 41.25 242.94 41.38 C245.15 41.59 245.15 41.59 247 42 C247.33 42.66 247.66 43.32 248 44 C250.53 44.66 250.53 44.66 253 45 C253 45.66 253 46.32 253 47 C253.93 47.22 253.93 47.22 254.88 47.44 C257 48 257 48 259 49 C259.33 48.34 259.66 47.68 260 47 C260 47.66 260 48.32 260 49 C262.64 49.66 265.28 50.32 268 51 C268 51.66 268 52.32 268 53 C269.67 53.19 269.67 53.19 271.38 53.38 C275 54 275 54 277 56 C278.32 56 279.64 56 281 56 C281 56.66 281 57.32 281 58 C281.66 58 282.32 58 283 58 C283 58.66 283 59.32 283 60 C286.05 61.01 286.05 61.01 289 60 C289 60.66 289 61.32 289 62 C289.99 62 290.98 62 292 62 C292 62.66 292 63.32 292 64 C295.05 65.01 295.05 65.01 298 64 C298 64.66 298 65.32 298 66 C298.66 66 299.32 66 300 66 C300 66.66 300 67.32 300 68 C303.05 69.01 303.05 69.01 306 68 C306 68.66 306 69.32 306 70 C306.66 70 307.32 70 308 70 C308 70.66 308 71.32 308 72 C311.05 73.01 311.05 73.01 314 72 C317.88 75.75 317.88 75.75 319 78 C320.32 77.67 321.64 77.34 323 77 C323 77.66 323 78.32 323 79 C323.96 79.19 323.96 79.19 324.94 79.38 C325.62 79.58 326.3 79.79 327 80 C327.33 80.66 327.66 81.32 328 82 C329.73 82.5 329.73 82.5 331.5 83 C333.23 83.5 333.23 83.5 335 84 C335.33 84.66 335.66 85.32 336 86 C336.85 86.5 337.69 86.99 338.56 87.5 C339.37 88 340.17 88.49 341 89 C341 89.66 341 90.32 341 91 C341.66 91 342.32 91 343 91 C343.33 90.34 343.66 89.68 344 89 C344.74 89.8 345.49 90.61 346.25 91.44 C348.98 93.98 349.62 94.26 353 95 C354.7 96.29 356.37 97.62 358 99 C358.99 99.66 359.98 100.32 361 101 C361.66 101.66 362.32 102.32 363 103 C363.66 102.67 364.32 102.34 365 102 C365 102.66 365 103.32 365 104 C366.32 104.33 367.64 104.66 369 105 C369 105.99 369 106.98 369 108 C369.99 108.33 370.98 108.66 372 109 C372.99 109.66 373.98 110.32 375 111 C375.99 111 376.98 111 378 111 C378 111.66 378 112.32 378 113 C378.99 113 379.98 113 381 113 C381.25 113.8 381.5 114.61 381.75 115.44 C382.71 118.15 382.71 118.15 385 118.75 C385.99 118.87 385.99 118.87 387 119 C387.66 119.33 388.32 119.66 389 120 C389 120.66 389 121.32 389 122 C389.95 122.27 390.9 122.54 391.88 122.81 C395 124 395 124 397 127 C398.96 128.38 400.97 129.71 403 131 C407.04 133.58 410.62 136.34 414.21 139.49 C415.95 140.96 417.75 142.27 419.62 143.56 C422.76 145.75 425.33 148.26 428 151 C429.99 152.69 431.98 154.35 434 156 C435.25 157.04 436.5 158.08 437.75 159.12 C438.32 159.6 438.89 160.08 439.48 160.57 C441 162 441 162 443 165 C443.7 165.52 444.4 166.03 445.12 166.56 C445.74 167.04 446.36 167.51 447 168 C447 168.66 447 169.32 447 170 C447.87 170.19 448.73 170.37 449.62 170.56 C453.49 172.21 454.89 173.92 457.43 177.14 C459 179 460.62 180.46 462.5 182 C465.57 184.53 468.02 187.3 470.55 190.36 C472.27 192.31 474.26 193.81 476.29 195.42 C480.95 199.73 484.79 205.05 488.59 210.12 C491.57 214.09 494.82 217.85 498.38 221.31 C500 223 500 223 500 225 C500.66 225 501.32 225 502 225 C502 225.66 502 226.32 502 227 C502.66 227 503.32 227 504 227 C509 232.48 509 232.48 509 235 C509.66 235.33 510.32 235.66 511 236 C511.14 236.66 511.29 237.32 511.44 238 C511.62 238.66 511.81 239.32 512 240 C512.99 240.33 513.98 240.66 515 241 C516.19 243.56 516.19 243.56 517 246 C517.66 246 518.32 246 519 246 C519 246.66 519 247.32 519 248 C519.66 248 520.32 248 521 248 C522.29 249.46 522.29 249.46 523.62 251.38 C524.29 252.31 524.29 252.31 524.98 253.27 C526 255 526 255 526 257 C526.66 257.33 527.32 257.66 528 258 C528.72 259.64 529.39 261.31 530 263 C530.66 263 531.32 263 532 263 C533.04 264.64 534.04 266.31 535 268 C535.66 268.66 536.32 269.32 537 270 C537.31 270.63 537.61 271.26 537.93 271.91 C539.09 274.17 540.43 275.63 542.19 277.44 C545.02 280.62 545.02 280.62 544.88 283.94 C544.59 284.62 544.3 285.3 544 286 C544.91 286.15 544.91 286.15 545.84 286.3 C549.56 287.51 551.07 290.75 553 294 C553.35 294.89 553.7 295.77 554.06 296.69 C554.85 299.1 554.85 299.1 556.81 300.69 C559.64 303.68 561.1 306.96 562.85 310.66 C564.02 313.18 564.02 313.18 566 316 C565.67 316.99 565.34 317.98 565 319 C565.99 319 566.98 319 568 319 C568 319.99 568 320.98 568 322 C568.99 322.33 569.98 322.66 571 323 C570.6 323.84 570.6 323.84 570.19 324.69 C570.13 325.45 570.06 326.21 570 327 C572.12 329.41 574.34 331.46 576.81 333.5 C578.51 335.64 578.21 337.35 578 340 C578.66 340 579.32 340 580 340 C580 341.32 580 342.64 580 344 C580.66 344.33 581.32 344.66 582 345 C582 345.99 582 346.98 582 348 C582.66 348 583.32 348 584 348 C584 349.32 584 350.64 584 352 C584.66 352.33 585.32 352.66 586 353 C587.28 355.3 588.47 357.58 589.62 359.94 C589.95 360.58 590.27 361.23 590.61 361.9 C593 366.73 593 366.73 593 369 C592.01 369.33 591.02 369.66 590 370 C591.65 370.33 593.3 370.66 595 371 C595 373.31 595 375.62 595 378 C595.66 378 596.32 378 597 378 C599.15 381.23 599.2 382.28 599 386 C599.66 386 600.32 386 601 386 C601.48 387.25 601.96 388.5 602.44 389.75 C602.84 390.79 602.84 390.79 603.25 391.86 C603.96 393.89 604.51 395.9 605 398 C604.34 398.33 603.68 398.66 603 399 C603.64 399.12 604.28 399.25 604.94 399.38 C605.96 399.68 605.96 399.68 607 400 C608.33 402.67 607.67 404.17 607 407 C607.66 407 608.32 407 609 407 C612.54 415 612.54 415 613 418 C612.67 418.33 612.34 418.66 612 419 C612.66 419.33 613.32 419.66 614 420 C614 420.99 614 421.98 614 423 C614.66 423 615.32 423 616 423 C616.04 423.61 616.07 424.23 616.11 424.86 C616.18 425.67 616.24 426.48 616.31 427.31 C616.37 428.11 616.43 428.91 616.49 429.74 C616.8 432.08 616.8 432.08 618.53 433.47 C620 435 620 435 620.29 437.48 C620.26 438.37 620.22 439.27 620.19 440.19 C620.16 441.09 620.13 441.99 620.11 442.92 C620.07 443.61 620.04 444.29 620 445 C620.66 445 621.32 445 622 445 C624.21 448.31 624.22 449.34 624.12 453.19 C624.11 454.09 624.09 454.99 624.07 455.92 C624.04 456.95 624.04 456.95 624 458 C624.66 458 625.32 458 626 458 C627.49 462.46 627.49 462.46 629 467 C629.33 467 629.66 467 630 467 C630 469.33 630 471.67 630 474 C630.32 474.55 630.64 475.11 630.97 475.68 C632.64 479.45 632.46 483.34 632.66 487.42 C632.77 488.27 632.88 489.12 633 490 C633.66 490.33 634.32 490.66 635 491 C637.27 497.81 637.24 504.91 637 512 C637.66 512 638.32 512 639 512 C641.64 516.94 641.23 521.87 641.12 527.31 C641.11 528.71 641.11 528.71 641.1 530.13 C641.07 532.42 641.04 534.71 641 537 C641.66 537 642.32 537 643 537 C645.59 542.96 645.37 548.99 645.5 555.38 C645.64 562.56 645.92 569.1 648 576 C648.66 576 649.32 576 650 576 C650 614.28 650 652.56 650 692 C649.34 692.33 648.68 692.66 648 693 C646.01 698.09 645.89 702.53 645.99 707.96 C646 711.26 645.85 714.52 645.62 717.81 C645.52 719.37 645.52 719.37 645.41 720.96 C644.98 724.16 644.11 726.97 643 730 C642.34 730 641.68 730 641 730 C641.02 731.3 641.05 732.6 641.07 733.95 C641.09 735.67 641.11 737.4 641.12 739.12 C641.14 739.98 641.16 740.84 641.18 741.72 C641.21 746.57 640.9 750.45 639 755 C638.34 755 637.68 755 637 755 C637.05 756.04 637.09 757.07 637.14 758.14 C637.18 759.51 637.21 760.88 637.25 762.25 C637.28 762.93 637.32 763.61 637.35 764.32 C637.39 766.33 637.39 766.33 637 770 C635.69 771.36 634.36 772.69 633 774 C632.41 777.26 632.41 777.26 632.44 780.81 C632.11 788.55 632.11 788.55 630.5 791.81 C628.82 795.38 628.57 798.19 628.41 802.08 C628 804 628 804 625 806 C624.49 808.75 624.49 808.75 624.44 811.88 C624.28 815.8 624.05 818.6 622 822 C621.34 822 620.68 822 620 822 C620.03 822.6 620.07 823.21 620.11 823.83 C620.28 828.84 620.12 831.01 617 835 C616.44 837.99 616.19 840.97 616 844 C615.34 844 614.68 844 614 844 C614 844.99 614 845.98 614 847 C613.34 847.33 612.68 847.66 612 848 C612 849.98 612 851.96 612 854 C610.68 854.33 609.36 854.66 608 855 C607.94 856.14 607.94 856.14 607.89 857.3 C607.82 858.29 607.76 859.29 607.69 860.31 C607.63 861.3 607.57 862.28 607.51 863.3 C606.94 866.34 606.21 866.98 604 869 C603.27 872.61 603.27 872.61 603 876 C602.01 876.33 601.02 876.66 600 877 C599.95 877.61 599.9 878.23 599.85 878.86 C599.74 880.08 599.74 880.08 599.62 881.31 C599.52 882.51 599.52 882.51 599.41 883.74 C599 886 599 886 597 889 C596.34 889 595.68 889 595 889 C595.06 889.93 595.12 890.86 595.19 891.81 C595 895 595 895 593.62 896.88 C592 898 592 898 590 898 C590.31 899.42 590.31 899.42 590.62 900.88 C590.81 902.42 590.81 902.42 591 904 C590.34 904.66 589.68 905.32 589 906 C588.01 906 587.02 906 586 906 C586 908.31 586 910.62 586 913 C584.68 913.33 583.36 913.66 582 914 C582 916.31 582 918.62 582 921 C580.02 921.99 580.02 921.99 578 923 C578.02 923.95 578.04 924.9 578.06 925.88 C578 929 578 929 577 931 C576.01 931 575.02 931 574 931 C574 932.98 574 934.96 574 937 C573.34 937 572.68 937 572 937 C572 937.66 572 938.32 572 939 C571.34 939.33 570.68 939.66 570 940 C569.71 940.89 569.42 941.77 569.12 942.69 C567.74 946.76 566 951 562 953 C561.67 954.15 561.34 955.31 561 956.5 C560.67 957.65 560.34 958.81 560 960 C559.34 960.33 558.68 960.66 558 961 C557.34 963.53 557.34 963.53 557 966 C556.34 966 555.68 966 555 966 C554.63 967.14 554.63 967.14 554.25 968.31 C553 971 553 971 550.88 972.5 C550.26 973 549.64 973.49 549 974 C548.67 976.63 548.67 976.63 549 979 C548.34 979 547.68 979 547 979 C547 979.66 547 980.32 547 981 C546.34 981 545.68 981 545 981 C544.73 981.64 544.46 982.28 544.19 982.94 C543 985 543 985 540 986 C540 987.98 540 989.96 540 992 C539.34 992 538.68 992 538 992 C537.73 992.6 537.46 993.2 537.19 993.81 C536 996 536 996 534.44 997.44 C532.55 999.49 532.37 1001.28 532 1004 C531.34 1004 530.68 1004 530 1004 C529.75 1004.58 529.51 1005.16 529.25 1005.75 C527.38 1009.11 524.6 1011.33 521.78 1013.9 C519.75 1016.29 519.35 1017.92 519 1021 C518.34 1021 517.68 1021 517 1021 C516.34 1022.65 515.68 1024.3 515 1026 C514.34 1026 513.68 1026 513 1026 C512.67 1026.99 512.34 1027.98 512 1029 C510.73 1030.15 509.41 1031.25 508.06 1032.31 C504.58 1035.24 502.9 1037.4 502 1042 C501.34 1042 500.68 1042 500 1042 C499.67 1043.32 499.34 1044.64 499 1046 C498.01 1046 497.02 1046 496 1046 C495.9 1046.64 495.79 1047.28 495.69 1047.94 C495.46 1048.62 495.23 1049.3 495 1050 C494.01 1050.33 493.02 1050.66 492 1051 C490.79 1053 490.79 1053 490 1055 C489.34 1055 488.68 1055 488 1055 C487.75 1055.57 487.51 1056.14 487.25 1056.73 C485.79 1059.38 484.08 1061.17 481.95 1063.31 C481.11 1064.15 480.28 1064.99 479.42 1065.86 C478.52 1066.75 477.62 1067.65 476.69 1068.58 C475.76 1069.5 474.84 1070.43 473.89 1071.39 C471.93 1073.34 469.97 1075.3 468.01 1077.25 C465.5 1079.75 462.99 1082.26 460.49 1084.78 C458.1 1087.18 455.71 1089.56 453.31 1091.95 C452.41 1092.86 451.51 1093.77 450.58 1094.7 C449.74 1095.53 448.91 1096.35 448.05 1097.21 C447.32 1097.94 446.58 1098.68 445.82 1099.43 C444 1101 444 1101 442 1101 C441.34 1102.32 440.68 1103.64 440 1105 C439.34 1105 438.68 1105 438 1105 C437.34 1106.32 436.68 1107.64 436 1109 C435.01 1109 434.02 1109 433 1109 C433 1109.99 433 1110.98 433 1112 C431.68 1112.33 430.36 1112.66 429 1113 C429 1113.66 429 1114.32 429 1115 C427.87 1115.13 427.87 1115.13 426.72 1115.25 C423.42 1116.16 422.52 1117.27 420.44 1119.94 C418.16 1122.84 416.43 1124.57 413 1126 C413 1126.66 413 1127.32 413 1128 C411.35 1128.66 409.7 1129.32 408 1130 C408 1130.66 408 1131.32 408 1132 C407.28 1132.06 406.56 1132.12 405.81 1132.19 C402.08 1133.26 400.59 1135.15 398 1138 C396.37 1139.7 394.71 1141.38 393 1143 C392.34 1143 391.68 1143 391 1143 C391 1143.66 391 1144.32 391 1145 C390.28 1145.06 389.56 1145.12 388.81 1145.19 C385.13 1146.25 383.54 1148.19 381 1151 C379 1153 379 1153 375.88 1153.12 C374.93 1153.08 373.98 1153.04 373 1153 C372.77 1153.56 372.55 1154.11 372.31 1154.69 C370.57 1157.75 368.73 1159.76 366 1162 C362.69 1162.31 362.69 1162.31 360 1162 C359.77 1162.58 359.55 1163.15 359.31 1163.75 C357.61 1166.66 355.82 1168.16 353 1170 C350.19 1170.25 350.19 1170.25 348 1170 C347.79 1170.58 347.59 1171.15 347.38 1171.75 C345.45 1174.91 343.22 1176.23 340 1178 C337.13 1178.25 337.13 1178.25 335 1178 C335 1178.99 335 1179.98 335 1181 C332 1183 332 1183 329.44 1183.44 C326.65 1183.79 326.65 1183.79 325 1187 C321.37 1187.19 321.37 1187.19 318 1187 C317.67 1188.32 317.34 1189.64 317 1191 C314.69 1191 312.38 1191 310 1191 C309.67 1192.32 309.34 1193.64 309 1195 C307.33 1195.12 307.33 1195.12 305.62 1195.25 C301.94 1195.58 301.94 1195.58 300.56 1198.06 C300.38 1198.7 300.19 1199.34 300 1200 C297.69 1200 295.38 1200 293 1200 C292.67 1201.32 292.34 1202.64 292 1204 C289.69 1204.33 287.38 1204.66 285 1205 C284.67 1205.99 284.34 1206.98 284 1208 C281.36 1208 278.72 1208 276 1208 C275.34 1209.32 274.68 1210.64 274 1212 C272.02 1212 270.04 1212 268 1212 C268 1212.66 268 1213.32 268 1214 C264.92 1216.06 264.07 1216.22 260.56 1216.38 C256.27 1216.74 254.94 1217.85 252 1221 C249.25 1220.75 249.25 1220.75 247 1220 C247 1220.99 247 1221.98 247 1223 C243.94 1224.78 241.78 1225.23 238.25 1225.12 C237.45 1225.11 236.65 1225.09 235.83 1225.07 C234.92 1225.04 234.92 1225.04 234 1225 C233.34 1226.32 232.68 1227.64 232 1229 C228.7 1229 225.4 1229 222 1229 C221.34 1230.32 220.68 1231.64 220 1233 C216.37 1233 212.74 1233 209 1233 C208.67 1234.32 208.34 1235.64 208 1237 C207.24 1237.04 206.48 1237.07 205.7 1237.11 C204.71 1237.18 203.71 1237.24 202.69 1237.31 C201.7 1237.37 200.72 1237.43 199.7 1237.49 C196.97 1237.74 196.97 1237.74 195.51 1239.52 C193.25 1241.73 191.28 1241.37 188.19 1241.44 C183.29 1241.67 183.29 1241.67 179.06 1244.06 C174.1 1247.2 168.72 1246.31 163 1246 C162.34 1247.32 161.68 1248.64 161 1250 C156.05 1250 151.1 1250 146 1250 C146 1250.66 146 1251.32 146 1252 C140.62 1254.24 135.84 1254.24 130.12 1254.12 C129.25 1254.12 128.37 1254.11 127.46 1254.1 C125.31 1254.07 123.15 1254.04 121 1254 C120.67 1254.99 120.34 1255.98 120 1257 C117.03 1257.99 114.92 1258.17 111.82 1258.25 C110.81 1258.28 109.8 1258.31 108.76 1258.35 C106.63 1258.41 104.51 1258.46 102.38 1258.52 C100.86 1258.57 100.86 1258.57 99.32 1258.62 C97.93 1258.66 97.93 1258.66 96.52 1258.7 C93.9 1259.01 92.31 1259.79 90 1261 C89.01 1261 88.02 1261 87 1261 C87 1261.66 87 1262.32 87 1263 C41.46 1263 -4.08 1263 -51 1263 C-51.66 1261.68 -52.32 1260.36 -53 1259 C-53.76 1258.98 -54.52 1258.96 -55.31 1258.94 C-58.77 1258.84 -62.23 1258.73 -65.69 1258.62 C-66.89 1258.59 -68.08 1258.56 -69.32 1258.53 C-70.48 1258.49 -71.63 1258.45 -72.82 1258.41 C-74.42 1258.37 -74.42 1258.37 -76.05 1258.32 C-79.03 1258 -81.28 1257.25 -84 1256 C-84 1255.34 -84 1254.68 -84 1254 C-90.27 1254 -96.54 1254 -103 1254 C-103.66 1252.68 -104.32 1251.36 -105 1250 C-106.18 1250.02 -107.36 1250.05 -108.58 1250.07 C-110.14 1250.09 -111.69 1250.11 -113.25 1250.12 C-114.03 1250.14 -114.8 1250.16 -115.61 1250.18 C-122.84 1250.24 -122.84 1250.24 -126 1248 C-126.66 1247.34 -127.32 1246.68 -128 1246 C-128 1246.33 -128 1246.66 -128 1247 C-129.42 1247.05 -130.83 1247.09 -132.25 1247.12 C-133.43 1247.16 -133.43 1247.16 -134.64 1247.2 C-137.23 1246.98 -138.76 1246.29 -141 1245 C-141.66 1244.67 -142.32 1244.34 -143 1244 C-143 1243.01 -143 1242.02 -143 1241 C-143.33 1241.66 -143.66 1242.32 -144 1243 C-148.31 1243.17 -151.28 1243.23 -155 1241 C-156.66 1240.32 -158.33 1239.65 -160 1239 C-160 1238.34 -160 1237.68 -160 1237 C-160.6 1237.03 -161.21 1237.07 -161.83 1237.11 C-166.8 1237.27 -169.07 1237.17 -173 1234 C-175.03 1233.62 -177.04 1233.43 -179.09 1233.25 C-181.36 1232.95 -183.07 1232.21 -185 1231 C-185 1230.34 -185 1229.68 -185 1229 C-185.6 1229.03 -186.21 1229.07 -186.83 1229.11 C-193.43 1229.33 -193.43 1229.33 -196.5 1227.56 C-197 1227.05 -197.49 1226.53 -198 1226 C-198.33 1225.67 -198.66 1225.34 -199 1225 C-199.99 1225 -200.98 1225 -202 1225 C-204.06 1224.69 -204.06 1224.69 -206 1224 C-206.66 1223.01 -207.32 1222.02 -208 1221 C-210.35 1220.27 -210.35 1220.27 -213 1219.94 C-217.79 1219.21 -217.79 1219.21 -220 1217 C-220.99 1217 -221.98 1217 -223 1217 C-226 1216 -226 1216 -228 1214 C-229.9 1213.4 -229.9 1213.4 -232 1213 C-233.33 1212.67 -234.67 1212.33 -236 1212 C-236 1211.34 -236 1210.68 -236 1210 C-238.97 1209.34 -241.94 1208.68 -245 1208 C-245 1207.34 -245 1206.68 -245 1206 C-246.83 1204.87 -246.83 1204.87 -249 1204 C-249.99 1204.33 -250.98 1204.66 -252 1205 C-254.69 1204.06 -254.69 1204.06 -257 1203 C-257 1202.34 -257 1201.68 -257 1201 C-257.78 1200.92 -258.57 1200.84 -259.38 1200.75 C-262 1200 -262 1200 -263.31 1197.94 C-263.54 1197.3 -263.77 1196.66 -264 1196 C-264.84 1196.37 -264.84 1196.37 -265.69 1196.75 C-268 1197 -268 1197 -270.75 1195.19 C-271.49 1194.47 -272.24 1193.74 -273 1193 C-273 1192.34 -273 1191.68 -273 1191 C-274.98 1191 -276.96 1191 -279 1191 C-279 1190.34 -279 1189.68 -279 1189 C-279.66 1189 -280.32 1189 -281 1189 C-281 1188.34 -281 1187.68 -281 1187 C-282.05 1187.12 -282.05 1187.12 -283.12 1187.25 C-286.98 1186.91 -288.85 1185.23 -292 1183 C-293.28 1182.33 -294.57 1181.69 -295.88 1181.06 C-299.35 1179.37 -302.59 1177.45 -305.84 1175.36 C-309.19 1173.25 -312.65 1171.3 -316.09 1169.33 C-316.72 1168.89 -317.35 1168.45 -318 1168 C-318 1167.34 -318 1166.68 -318 1166 C-318.64 1165.9 -319.28 1165.79 -319.94 1165.69 C-320.62 1165.46 -321.3 1165.23 -322 1165 C-322.33 1164.01 -322.66 1163.02 -323 1162 C-323.58 1162.23 -324.15 1162.45 -324.75 1162.69 C-327 1163 -327 1163 -329.19 1161.69 C-331 1160 -331 1160 -332 1158 C-332.66 1157.67 -333.32 1157.34 -334 1157 C-336 1156 -336 1156 -337 1154 C-339.02 1153.35 -339.02 1153.35 -341 1153 C-341 1152.34 -341 1151.68 -341 1151 C-341.99 1151 -342.98 1151 -344 1151 C-344 1150.34 -344 1149.68 -344 1149 C-346.94 1147.48 -349.92 1146.2 -353 1145 C-353 1144.34 -353 1143.68 -353 1143 C-354.14 1142.6 -354.14 1142.6 -355.31 1142.19 C-357.91 1141.04 -359.13 1140.05 -361 1138 C-361.66 1137.67 -362.32 1137.34 -363 1137 C-363 1136.34 -363 1135.68 -363 1135 C-363.52 1134.75 -364.03 1134.51 -364.56 1134.25 C-370.31 1131.3 -374.53 1128.71 -379 1124 C-380.39 1122.92 -380.39 1122.92 -381.81 1121.81 C-382.53 1121.21 -383.26 1120.62 -384 1120 C-384 1119.34 -384 1118.68 -384 1118 C-384.85 1117.81 -385.69 1117.63 -386.56 1117.44 C-390.45 1115.81 -392.35 1113.91 -395.19 1110.88 C-397.53 1108.45 -400.09 1106.37 -402.71 1104.26 C-403.14 1103.85 -403.56 1103.43 -404 1103 C-404 1102.34 -404 1101.68 -404 1101 C-405.14 1100.6 -405.14 1100.6 -406.31 1100.19 C-408.92 1099.04 -410.16 1098.1 -412 1096 C-412.66 1095.34 -413.32 1094.68 -414 1094 C-414.56 1093.26 -415.11 1092.52 -415.69 1091.75 C-417.54 1089.55 -419.19 1087.93 -421.38 1086.12 C-423.85 1084.07 -425.96 1081.98 -428 1079.5 C-430.52 1076.44 -433.27 1074 -436.33 1071.49 C-438.02 1069.98 -439.4 1068.4 -440.81 1066.62 C-441.53 1065.76 -442.26 1064.89 -443 1064 C-443.66 1064 -444.32 1064 -445 1064 C-446.33 1062.21 -446.33 1062.21 -447.81 1059.81 C-450.23 1056.07 -452.71 1053.04 -456 1050 C-461.11 1045.01 -465.32 1040.69 -468 1034 C-468.99 1033.67 -469.98 1033.34 -471 1033 C-471.69 1030.94 -471.69 1030.94 -472 1029 C-472.66 1029 -473.32 1029 -474 1029 C-474.5 1026.03 -474.5 1026.03 -475 1023 C-473.68 1022.34 -472.36 1021.68 -471 1021 C-471.66 1020.34 -472.32 1019.68 -473 1019 C-472.34 1018.94 -471.67 1018.88 -470.99 1018.82 C-464.45 1018.2 -464.45 1018.2 -458 1017 C-458 1016.34 -458 1015.68 -458 1015 C-457.43 1014.88 -456.87 1014.76 -456.29 1014.63 C-455.55 1014.47 -454.82 1014.3 -454.06 1014.12 C-453.33 1013.96 -452.6 1013.8 -451.85 1013.63 C-449.79 1013.17 -449.79 1013.17 -449 1011 C-446.35 1010.41 -443.71 1010.26 -441 1010 C-440.67 1009.01 -440.34 1008.02 -440 1007 C-438.3 1006.81 -438.3 1006.81 -436.56 1006.62 C-435.39 1006.42 -434.21 1006.21 -433 1006 C-432.67 1005.34 -432.34 1004.68 -432 1004 C-431.67 1003.34 -431.34 1002.68 -431 1002 C-430.03 1001.86 -429.06 1001.71 -428.06 1001.56 C-427.05 1001.38 -426.04 1001.19 -425 1001 C-424.34 1000.01 -423.68 999.02 -423 998 C-420.67 997.31 -418.34 996.64 -416 996 C-415.67 995.34 -415.34 994.68 -415 994 C-412.71 993.37 -412.71 993.37 -409.94 992.88 C-408.56 992.62 -408.56 992.62 -407.15 992.37 C-406.44 992.25 -405.73 992.12 -405 992 C-405.33 991.34 -405.66 990.68 -406 990 C-403.03 989.34 -400.06 988.68 -397 988 C-397 987.34 -397 986.68 -397 986 C-396.32 985.73 -395.65 985.47 -394.95 985.2 C-394.06 984.84 -393.17 984.49 -392.25 984.12 C-390.93 983.6 -390.93 983.6 -389.58 983.07 C-387.04 982.07 -387.04 982.07 -384.92 980.87 C-383 980 -383 980 -379 980 C-378.67 979.01 -378.34 978.02 -378 977 C-376.68 977 -375.36 977 -374 977 C-373.67 976.34 -373.34 975.68 -373 975 C-372.67 974.67 -372.34 974.34 -372 974 C-372 973.67 -372 973.34 -372 973 C-368.7 972.67 -365.4 972.34 -362 972 C-362 971.01 -362 970.02 -362 969 C-359.36 968.67 -356.72 968.34 -354 968 C-354 967.01 -354 966.02 -354 965 C-353.15 964.73 -353.15 964.73 -352.28 964.45 C-348.47 963.21 -344.73 961.94 -341.06 960.31 C-338 959 -338 959 -336 959 C-335.67 958.01 -335.34 957.02 -335 956 C-332.69 955.67 -330.38 955.34 -328 955 C-327.67 954.01 -327.34 953.02 -327 952 C-324.68 951.3 -322.34 950.63 -320 950 C-319.67 949.34 -319.34 948.68 -319 948 C-316.35 947.41 -313.71 947.26 -311 947 C-311 946.01 -311 945.02 -311 944 C-308.36 943.67 -305.72 943.34 -303 943 C-302.67 942.01 -302.34 941.02 -302 940 C-299.67 939.32 -297.34 938.66 -295 938 C-294.34 937.01 -293.68 936.02 -293 935 C-291 934.67 -289 934.33 -287 934 C-286.34 933.01 -285.68 932.02 -285 931 C-282.68 930.3 -280.34 929.63 -278 929 C-277.34 928.34 -276.68 927.68 -276 927 C-273.84 926.37 -273.84 926.37 -271.38 925.88 C-270.15 925.62 -270.15 925.62 -268.9 925.37 C-268.27 925.25 -267.65 925.12 -267 925 C-267.33 924.34 -267.66 923.68 -268 923 C-265.03 922.34 -262.06 921.68 -259 921 C-259 920.34 -259 919.68 -259 919 C-255.38 917.68 -252.9 917 -249 917 C-249 916.01 -249 915.02 -249 914 C-246.36 913.34 -243.72 912.68 -241 912 C-241 911.34 -241 910.68 -241 910 C-238.03 909.67 -235.06 909.34 -232 909 C-232 908.01 -232 907.02 -232 906 C-230.68 906 -229.36 906 -228 906 C-228 905.34 -228 904.68 -228 904 C-226.68 904 -225.36 904 -224 904 C-224.99 903.34 -225.98 902.68 -227 902 C-213.78 899.8 -213.78 899.8 -209.12 902.94 C-208.42 903.62 -207.72 904.3 -207 905 C-206.34 905.33 -205.68 905.66 -205 906 C-205 906.99 -205 907.98 -205 909 C-201.61 910.51 -201.61 910.51 -198 911 C-196.31 912.64 -194.65 914.31 -193 916 C-192.07 916.72 -191.14 917.44 -190.19 918.19 C-189.47 918.79 -188.74 919.38 -188 920 C-188 920.66 -188 921.32 -188 922 C-186.99 922.21 -185.98 922.41 -184.94 922.62 C-180.99 923.73 -178.54 925.8 -175.58 928.56 C-173.85 930.21 -173.85 930.21 -171 932 C-171 932.66 -171 933.32 -171 934 C-170.34 934 -169.68 934 -169 934 C-168.67 933.34 -168.34 932.68 -168 932 C-168 932.99 -168 933.98 -168 935 C-167.01 935.33 -166.02 935.66 -165 936 C-164.01 936.66 -163.02 937.32 -162 938 C-161.01 938 -160.02 938 -159 938 C-158.42 938.6 -157.85 939.2 -157.25 939.81 C-155.14 941.87 -153.96 942.57 -151.31 943.62 C-148 945 -148 945 -147 947 C-146.34 947 -145.68 947 -145 947 C-145 947.66 -145 948.32 -145 949 C-143.7 949.12 -143.7 949.12 -142.38 949.25 C-138.52 950.11 -136.23 951.78 -133 954 C-132.01 954 -131.02 954 -130 954 C-130 954.66 -130 955.32 -130 956 C-127.24 956.6 -124.84 957 -122 957 C-121.67 957.66 -121.34 958.32 -121 959 C-119.85 959.33 -118.69 959.66 -117.5 960 C-116.35 960.33 -115.19 960.66 -114 961 C-113.67 961.66 -113.34 962.32 -113 963 C-110.47 963.66 -110.47 963.66 -108 964 C-108 964.66 -108 965.32 -108 966 C-105.24 966.6 -102.84 967 -100 967 C-98.13 967.84 -98.13 967.84 -96.12 968.94 C-91.82 971.17 -88.2 971.88 -83.38 972.38 C-80.03 972.99 -78.97 973.33 -77 976 C-76.67 975.34 -76.34 974.68 -76 974 C-76 974.66 -76 975.32 -76 976 C-75.26 976.13 -74.53 976.27 -73.77 976.4 C-72.79 976.58 -71.82 976.76 -70.81 976.94 C-69.85 977.11 -68.89 977.29 -67.89 977.46 C-66.94 977.64 -65.98 977.82 -65 978 C-64.08 978.15 -63.15 978.29 -62.2 978.44 C-61.47 978.63 -60.75 978.81 -60 979 C-59.67 979.66 -59.34 980.32 -59 981 C-58.19 980.99 -57.38 980.98 -56.55 980.96 C-54.95 980.95 -54.95 980.95 -53.31 980.94 C-52.26 980.93 -51.2 980.91 -50.11 980.9 C-47.28 980.99 -44.76 981.35 -42 982 C-42 982.99 -42 983.98 -42 985 C-41.13 984.99 -40.26 984.98 -39.36 984.96 C-18.1 984.8 -18.1 984.8 -14.22 987.01 C-11.34 988.29 -9.09 988.24 -5.95 988.23 C-4.73 988.23 -3.5 988.23 -2.25 988.23 C-0.93 988.22 0.38 988.21 1.73 988.2 C3.1 988.19 4.46 988.19 5.82 988.19 C9.4 988.18 12.97 988.16 16.55 988.14 C20.21 988.12 23.86 988.11 27.51 988.1 C34.67 988.08 41.84 988.04 49 988 C49.33 987.34 49.66 986.68 50 986 C61.22 985.34 72.44 984.68 84 984 C84 983.34 84 982.68 84 982 C90.6 981.01 97.2 980.02 104 979 C104 978.34 104 977.68 104 977 C108.29 976.67 112.58 976.34 117 976 C117.33 975.01 117.66 974.02 118 973 C122.62 972.34 127.24 971.68 132 971 C132 970.34 132 969.68 132 969 C132.7 968.88 133.4 968.76 134.12 968.63 C135.03 968.47 135.94 968.3 136.88 968.12 C137.78 967.96 138.68 967.8 139.62 967.63 C142.17 967.17 142.17 967.17 144 965 C146.6 964.37 146.6 964.37 149.62 963.88 C151.13 963.62 151.13 963.62 152.66 963.37 C153.43 963.25 154.21 963.12 155 963 C155 962.34 155 961.68 155 961 C158.3 960.01 161.6 959.02 165 958 C165 957.34 165 956.68 165 956 C165.95 955.71 166.9 955.42 167.88 955.12 C171.05 954.23 171.05 954.23 173 952 C175.32 951.6 177.66 951.26 180 951 C180.33 950.01 180.66 949.02 181 948 C183.31 947.67 185.62 947.34 188 947 C188.33 946.01 188.66 945.02 189 944 C190.67 943.16 190.67 943.16 192.75 942.5 C198.7 940.44 203.21 937.16 208.13 933.3 C210 932 210 932 213 931 C213.33 930.34 213.66 929.68 214 929 C214.99 929.33 215.98 929.66 217 930 C217 929.01 217 928.02 217 927 C218.65 926.67 220.3 926.34 222 926 C222.33 925.01 222.66 924.02 223 923 C224.98 921.97 226.99 920.97 229 920 C230.88 918.62 232.71 917.18 234.5 915.69 C235.45 914.9 236.4 914.11 237.38 913.3 C239.52 911.42 241.49 909.52 243.44 907.44 C246 905 246 905 250 905 C250 904.01 250 903.02 250 902 C250.56 901.77 251.11 901.55 251.69 901.31 C254.65 899.63 256.6 897.42 259 895 C260.97 893.2 262.95 891.41 264.94 889.62 C268.38 886.52 271.67 883.39 274.62 879.81 C275.41 878.88 276.19 877.96 277 877 C277.66 877 278.32 877 279 877 C279.25 876.44 279.5 875.89 279.75 875.31 C281.9 871.33 284.82 868.18 288 865 C288.33 864.34 288.66 863.68 289 863 C289.99 863 290.98 863 292 863 C292.03 861.98 292.03 861.98 292.06 860.94 C293.27 857.16 295.31 855.51 298.14 852.84 C300.88 850.13 302.91 847.23 305 844 C305 843.34 305 842.68 305 842 C305.99 841.34 306.98 840.68 308 840 C309.78 837.34 311.17 834.64 312.56 831.75 C314 829 314 829 316 828 C316.5 827.01 316.99 826.02 317.5 825 C319 822 319 822 321 821 C321.41 818.68 321.74 816.34 322 814 C322.33 814.99 322.66 815.98 323 817 C323.66 817 324.32 817 325 817 C325.15 815.92 325.15 815.92 325.31 814.81 C326.07 811.71 327.29 809.69 329 807 C330.02 805.01 331.02 803.01 332 801 C332.66 801 333.32 801 334 801 C333.92 800.11 333.84 799.23 333.75 798.31 C334.06 794.25 335.42 793.05 338 790 C338.79 787.31 338.79 787.31 339 785 C339.99 785 340.98 785 342 785 C342.33 781.37 342.66 777.74 343 774 C343.66 774.66 344.32 775.32 345 776 C345.66 773.03 346.32 770.06 347 767 C347.99 767 348.98 767 350 767 C349.67 766.01 349.34 765.02 349 764 C349.66 764 350.32 764 351 764 C351.05 763.36 351.1 762.72 351.15 762.07 C351.22 761.24 351.3 760.41 351.38 759.56 C351.48 758.33 351.48 758.33 351.59 757.07 C351.72 756.38 351.86 755.7 352 755 C352.66 754.67 353.32 754.34 354 754 C354.36 751.45 354.44 748.92 354.56 746.35 C354.7 745.57 354.85 744.8 355 744 C355.99 743.34 356.98 742.68 358 742 C358.81 738.66 358.81 738.66 359.19 734.88 C359.43 732.95 359.43 732.95 359.67 730.99 C359.78 730 359.89 729.02 360 728 C360.66 728.33 361.32 728.66 362 729 C362.12 727.93 362.24 726.86 362.37 725.75 C362.54 724.36 362.71 722.96 362.88 721.56 C362.99 720.5 362.99 720.5 363.11 719.42 C363.34 717.6 363.66 715.8 364 714 C364.66 713.67 365.32 713.34 366 713 C367.37 708.22 367.32 703.2 367.52 698.26 C367.78 693.22 367.78 693.22 370 691 C371.14 687.72 371.18 684.48 371.28 681.03 C371.34 679.31 371.34 679.31 371.39 677.55 C371.46 675.14 371.54 672.72 371.61 670.31 C371.64 669.17 371.68 668.02 371.72 666.84 C371.76 665.27 371.76 665.27 371.81 663.66 C372 661 372 661 373 658 C372.97 656.01 372.94 654.02 372.84 652.04 C373 650 373 650 374 648.22 C375.24 645.48 375.23 643.46 375.2 640.46 C375.19 638.88 375.19 638.88 375.18 637.26 C375.16 636.17 375.14 635.07 375.12 633.94 C375.11 632.29 375.11 632.29 375.1 630.6 C375.08 628.56 375.06 626.52 375.03 624.48 C375.01 622.65 375 620.83 375 619 C374.51 617.94 374.03 616.88 373.53 615.79 C371.82 611.95 371.6 608.6 371.56 604.39 C371.55 603.69 371.53 603 371.52 602.28 C371.48 600.08 371.46 597.88 371.44 595.69 C371.41 593.47 371.39 591.26 371.35 589.04 C371.31 587.05 371.29 585.05 371.27 583.05 C371.32 579.89 371.32 579.89 369 578 C369.66 578 370.32 578 371 578 C370.8 577.47 370.59 576.93 370.38 576.38 C368.55 571.32 367.66 566.7 367.24 561.34 C366.91 558.09 365.96 555.12 365 552 C364.46 549.68 363.96 547.35 363.46 545.02 C362.99 542.81 362.99 542.81 362 540 C362.33 539.01 362.66 538.02 363 537 C362.34 537 361.68 537 361 537 C359.71 532.88 358.74 529.33 359 525 C358.34 525 357.68 525 357 525 C356.81 524.15 356.61 523.29 356.41 522.41 C356.15 521.31 355.89 520.2 355.62 519.06 C355.24 517.41 355.24 517.41 354.85 515.72 C354.57 514.82 354.29 513.93 354 513 C353.34 512.67 352.68 512.34 352 512 C351.41 509.35 351.26 506.71 351 504 C350.01 503.67 349.02 503.34 348 503 C348.66 502.67 349.32 502.34 350 502 C350 501.34 350 500.68 350 500 C349.34 500 348.68 500 348 500 C347.89 499.36 347.78 498.72 347.67 498.07 C347.43 496.83 347.43 496.83 347.19 495.56 C347.04 494.74 346.89 493.92 346.73 493.07 C346.49 492.38 346.25 491.7 346 491 C345.01 490.67 344.02 490.34 343 490 C342.3 488.07 342.3 488.07 341.88 485.69 C341.65 484.52 341.65 484.52 341.43 483.32 C341.29 482.56 341.15 481.79 341 481 C340.68 479.66 340.35 478.33 340 477 C339.34 477 338.68 477 338 477 C337.71 476.24 337.42 475.47 337.12 474.69 C336.04 471.85 336.04 471.85 334 469 C334 468.01 334 467.02 334 466 C333.01 466 332.02 466 331 466 C330.88 464.92 330.88 464.92 330.75 463.81 C329.85 460.45 328.21 458.64 326 456 C326 455.34 326 454.68 326 454 C325.34 454 324.68 454 324 454 C323.88 452.92 323.88 452.92 323.75 451.81 C323.16 448.85 323.16 448.85 320.94 446.44 C319 444 319 444 319 440 C318.34 440 317.68 440 317 440 C316.67 439.01 316.34 438.02 316 437 C315.1 436.13 315.1 436.13 314.19 435.25 C312.28 433.29 311.23 431.79 309.94 429.44 C308.26 426.11 308.26 426.11 306.25 424.25 C305.63 423.63 305.63 423.63 305 423 C305 422.01 305 421.02 305 420 C304.1 419.63 304.1 419.63 303.19 419.25 C300.66 417.81 299.5 416.47 298 414 C298 413.01 298 412.02 298 411 C297.34 411 296.68 411 296 411 C296 410.01 296 409.02 296 408 C295.34 408 294.68 408 294 408 C293.34 407.34 292.68 406.68 292 406 C292 405.01 292 404.02 292 403 C291.01 403 290.02 403 289 403 C287.21 401.32 287.21 401.32 285.38 399.12 C284.76 398.41 284.15 397.69 283.52 396.95 C282 395 282 395 281 393 C280.34 392.67 279.68 392.34 279 392 C279 391.34 279 390.68 279 390 C278.04 389.6 278.04 389.6 277.06 389.19 C275 388 275 388 274 385 C273.42 384.71 272.85 384.42 272.25 384.12 C269.2 382.6 267.36 380.47 265 378 C264.07 377.1 264.07 377.1 263.12 376.19 C262.17 375.26 262.17 375.26 261.19 374.31 C260.58 373.73 259.98 373.15 259.36 372.55 C258 371 258 371 258 369 C257.34 369 256.68 369 256 369 C256 368.34 256 367.68 256 367 C255.28 366.77 254.56 366.55 253.81 366.31 C250.44 364.74 248.44 362.79 246 360 C246 359.34 246 358.68 246 358 C245.44 357.94 244.89 357.88 244.31 357.81 C241.07 356.67 239.42 354.42 237 352 C235.77 351.23 234.52 350.5 233.25 349.81 C230 348 230 348 229 346 C228.01 345.67 227.02 345.34 226 345 C225.2 344.18 224.39 343.35 223.56 342.5 C221.16 340.16 220.23 339.36 217 339 C217 338.34 217 337.68 217 337 C215.35 336.34 213.7 335.68 212 335 C212 334.34 212 333.68 212 333 C210.02 332.34 208.04 331.68 206 331 C206 330.34 206 329.68 206 329 C205.42 328.88 204.85 328.75 204.25 328.62 C200.83 327.67 198.52 326.52 196 324 C195.01 323.67 194.02 323.34 193 323 C190.81 321.56 190.81 321.56 189 320 C189 319.34 189 318.68 189 318 C187.02 318 185.04 318 183 318 C183 317.34 183 316.68 183 316 C182.01 316 181.02 316 180 316 C180 315.34 180 314.68 180 314 C178.35 314 176.7 314 175 314 C175 313.34 175 312.68 175 312 C174.01 312 173.02 312 172 312 C172 311.34 172 310.68 172 310 C170.02 310 168.04 310 166 310 C166 309.34 166 308.68 166 308 C165.34 308 164.68 308 164 308 C163.34 307.34 162.68 306.68 162 306 C161.01 306.5 161.01 306.5 160 307 C158.23 306.02 156.46 305.03 154.73 303.98 C152.82 302.9 151.13 302.47 149 302 C146.64 301.06 144.33 300.03 142 299 C142 298.34 142 297.68 142 297 C141.07 297.23 140.14 297.45 139.19 297.69 C138.14 297.79 137.08 297.89 136 298 C134.98 297.02 133.98 296.02 133 295 C129.87 294.75 129.87 294.75 127 295 C127 294.67 127 294.34 127 294 C123.7 293.01 120.4 292.02 117 291 C117 290.34 117 289.68 117 289 C113.7 289 110.4 289 107 289 C106.34 287.68 105.68 286.36 105 285 C104.67 285.66 104.34 286.32 104 287 C100.04 286.67 96.08 286.34 92 286 C92 285.67 92 285.34 92 285 C89.36 284.34 86.72 283.68 84 283 C84 282.01 84 281.02 84 280 C83.34 280.99 82.68 281.98 82 283 C77.38 282.67 72.76 282.34 68 282 C68 281.67 68 281.34 68 281 C67.16 280.88 66.31 280.76 65.45 280.63 C64.35 280.47 63.25 280.3 62.12 280.12 C60.49 279.88 60.49 279.88 58.82 279.63 C56 279 56 279 54 277 C50.92 276.71 50.92 276.71 47.26 276.77 C46.56 276.77 45.87 276.77 45.16 276.77 C42.86 276.77 40.57 276.79 38.27 276.8 C36.68 276.81 35.1 276.81 33.51 276.81 C29.32 276.82 25.14 276.84 20.95 276.86 C16.68 276.88 12.41 276.89 8.14 276.9 C-0.24 276.92 -8.62 276.96 -17 277 C-17.33 277.66 -17.66 278.32 -18 279 C-21.18 280.06 -23.64 280.2 -26.98 280.32 C-28.14 280.36 -29.31 280.4 -30.51 280.44 C-31.72 280.48 -32.94 280.52 -34.19 280.56 C-35.41 280.61 -36.64 280.65 -37.9 280.69 C-40.94 280.8 -43.97 280.9 -47 281 C-47.66 282.32 -48.32 283.64 -49 285 C-53.95 285 -58.9 285 -64 285 C-64 285.66 -64 286.32 -64 287 C-68.28 289.57 -72.45 289.37 -77.32 289.56 C-78.2 289.7 -79.09 289.85 -80 290 C-80.66 290.99 -81.32 291.98 -82 293 C-84.28 293.41 -84.28 293.41 -86.94 293.5 C-90.62 293.49 -90.62 293.49 -93.47 295.5 C-96.18 298.15 -99.89 297.42 -103.5 297.5 C-104.33 297.66 -105.15 297.83 -106 298 C-107.4 299.94 -107.4 299.94 -108 302 C-109.98 302 -111.96 302 -114 302 C-114 302.66 -114 303.32 -114 304 C-114.99 304 -115.98 304 -117 304 C-117 304.66 -117 305.32 -117 306 C-119.97 306.66 -122.94 307.32 -126 308 C-126 308.66 -126 309.32 -126 310 C-127.65 310 -129.3 310 -131 310 C-131 310.66 -131 311.32 -131 312 C-131.99 312 -132.98 312 -134 312 C-134 312.66 -134 313.32 -134 314 C-135.65 314 -137.3 314 -139 314 C-139 314.66 -139 315.32 -139 316 C-139.58 316.25 -140.16 316.51 -140.76 316.77 C-144.36 318.36 -147.92 319.96 -151.44 321.75 C-154 323 -154 323 -156 323 C-156 323.66 -156 324.32 -156 325 C-159.09 326.76 -160.23 327 -164 327 C-164.31 327.87 -164.31 327.87 -164.62 328.75 C-166.55 331.91 -168.78 333.23 -172 335 C-174.88 335.25 -174.88 335.25 -177 335 C-177.34 335.87 -177.34 335.87 -177.69 336.75 C-179.39 339.66 -181.18 341.16 -184 343 C-186.81 343.25 -186.81 343.25 -189 343 C-189.27 343.6 -189.54 344.2 -189.81 344.81 C-191 347 -192.1 348.41 -194 350 C-194.66 350 -195.32 350 -196 350 C-196.66 351.32 -197.32 352.64 -198 354 C-198.99 354 -199.98 354 -201 354 C-201 354.66 -201 355.32 -201 356 C-202.65 356 -204.3 356 -206 356 C-206.37 356.87 -206.37 356.87 -206.75 357.75 C-208.35 360.63 -209.24 362.11 -212 364 C-218.67 364.84 -224.52 364.45 -230.12 360.5 C-230.74 360 -231.36 359.51 -232 359 C-234.92 357.05 -236.63 356.55 -240 356 C-240 355.34 -240 354.68 -240 354 C-240.99 354 -241.98 354 -243 354 C-243 353.34 -243 352.68 -243 352 C-243.66 351.9 -244.32 351.79 -245 351.69 C-251.41 350.22 -255.86 348.11 -261 344 C-262.93 343.16 -264.88 342.48 -266.86 341.79 C-270.39 340.48 -273.66 338.73 -277 337 C-277 336.34 -277 335.68 -277 335 C-278.11 335.09 -278.11 335.09 -279.25 335.19 C-282.53 334.96 -283.46 333.98 -286 332 C-288.65 331.29 -288.65 331.29 -291 331 C-291 330.34 -291 329.68 -291 329 C-291.99 329 -292.98 329 -294 329 C-294 328.34 -294 327.68 -294 327 C-294.58 327.23 -295.15 327.45 -295.75 327.69 C-298 328 -298 328 -300.25 326.75 C-301.12 325.88 -301.12 325.88 -302 325 C-302 324.01 -302 323.02 -302 322 C-302.33 322.66 -302.66 323.32 -303 324 C-303.99 324 -304.98 324 -306 324 C-306 323.34 -306 322.68 -306 322 C-307.65 321.34 -309.3 320.68 -311 320 C-311 319.34 -311 318.68 -311 318 C-312.14 318.06 -312.14 318.06 -313.31 318.12 C-316 318 -316 318 -319 316 C-319 315.34 -319 314.68 -319 314 C-320.67 314.09 -320.67 314.09 -322.38 314.19 C-323.57 314.13 -324.77 314.06 -326 314 C-326.99 312.51 -326.99 312.51 -328 311 C-328.99 310.86 -329.98 310.71 -331 310.56 C-331.99 310.38 -332.98 310.19 -334 310 C-335.38 307.94 -335.38 307.94 -336 306 C-336.58 306.23 -337.15 306.45 -337.75 306.69 C-340 307 -340 307 -342.25 305.75 C-343.12 304.88 -343.12 304.88 -344 304 C-344 303.01 -344 302.02 -344 301 C-344.66 301.99 -345.32 302.98 -346 304 C-348.38 303.31 -348.38 303.31 -351 302 C-352.31 299.37 -352.31 299.37 -353 297 C-354.11 297.19 -355.23 297.37 -356.38 297.56 C-360 298 -360 298 -362 297 C-362 296.34 -362 295.68 -362 295 C-362.6 294.86 -363.2 294.71 -363.81 294.56 C-365.56 294.11 -367.29 293.57 -369 293 C-369.5 291.51 -369.5 291.51 -370 290 C-370.99 290.33 -371.98 290.66 -373 291 C-373 290.34 -373 289.68 -373 289 C-373.72 288.89 -374.44 288.77 -375.19 288.66 C-378.99 287.77 -382.08 286 -385.5 284.16 C-388.02 282.99 -390.28 282.51 -393 282 C-395.19 280.5 -395.19 280.5 -397 279 C-397.66 278.67 -398.32 278.34 -399 278 C-399 277.34 -399 276.68 -399 276 C-400.14 276.06 -400.14 276.06 -401.31 276.12 C-404 276 -404 276 -407 274 C-407 273.34 -407 272.68 -407 272 C-407.74 272.06 -408.49 272.12 -409.25 272.19 C-412.58 271.96 -413.39 271.01 -416 269 C-418.63 267.87 -421.29 266.95 -424 266 C-424 265.34 -424 264.68 -424 264 C-424.72 264.08 -425.44 264.17 -426.19 264.25 C-429.84 263.93 -431.35 262.43 -434 260 C-434.66 260.33 -435.32 260.66 -436 261 C-436.66 260.67 -437.32 260.34 -438 260 C-438 259.34 -438 258.68 -438 258 C-438.99 257.67 -439.98 257.34 -441 257 C-441 256.34 -441 255.68 -441 255 C-441.89 255.04 -442.77 255.08 -443.69 255.12 C-447.04 255 -449 254.42 -452 253 C-452.7 252.69 -453.4 252.38 -454.12 252.06 C-456 251 -456 251 -457.56 249.38 C-459.03 247.65 -459.03 247.65 -462 248 C-464.67 247.71 -467.33 247.35 -470 247 C-470 246.34 -470 245.68 -470 245 C-472.12 243.88 -472.12 243.88 -475 243 C-475.32 240.86 -475.32 240.86 -475 238 C-473.35 235.87 -471.77 234.07 -469.88 232.19 C-468.86 231.13 -467.85 230.08 -466.84 229.02 C-466.35 228.5 -465.86 227.99 -465.35 227.46 C-463.08 225.01 -461.14 222.35 -459.22 219.62 C-458 218 -458 218 -456.41 216.41 C-454.89 215.03 -454.89 215.03 -454 213 C-453.01 213 -452.02 213 -451 213 C-450.88 211.9 -450.88 211.9 -450.76 210.77 C-449.82 207.33 -448.41 206.04 -445.81 203.62 C-443.03 200.97 -440.37 198.36 -437.94 195.38 C-435.28 192.19 -432.3 189.58 -429.15 186.89 C-424.25 182.58 -419.5 177.99 -415.44 172.88 C-411.05 167.7 -406.95 162.93 -400 162 C-400.33 161.01 -400.66 160.02 -401 159 C-400.28 158.77 -399.56 158.55 -398.81 158.31 C-395.41 156.73 -393.62 154.69 -391 152 C-389 150.04 -386.98 148.11 -384.94 146.19 C-384.42 145.69 -383.9 145.18 -383.37 144.67 C-380.26 141.75 -379.44 141 -375 141 C-375 140.01 -375 139.02 -375 138 C-373.36 136.95 -371.69 135.96 -370 135 C-367.47 132.78 -365.04 130.48 -362.6 128.16 C-359.86 125.89 -357.18 124.56 -354 123 C-352.21 121.65 -350.46 120.25 -348.75 118.81 C-344.22 115 -344.22 115 -342 115 C-342.66 114.34 -343.32 113.68 -344 113 C-342.93 112.75 -341.86 112.5 -340.75 112.25 C-336.91 110.97 -335.72 109.81 -333 107 C-331.68 107 -330.36 107 -329 107 C-328.67 106.01 -328.34 105.02 -328 104 C-325.62 102.44 -325.62 102.44 -323 101 C-322.01 100.34 -321.02 99.68 -320 99 C-318.68 99 -317.36 99 -316 99 C-316.33 98.01 -316.66 97.02 -317 96 C-314.03 95.5 -314.03 95.5 -311 95 C-310.67 94.01 -310.34 93.02 -310 92 C-308.29 91.21 -306.58 90.43 -304.83 89.75 C-302.38 88.75 -300.24 87.4 -298 86 C-296.77 85.33 -295.54 84.67 -294.31 84 C-290.84 82.23 -290.84 82.23 -289 79 C-286.84 78.27 -286.84 78.27 -284.38 77.81 C-283.56 77.65 -282.74 77.5 -281.9 77.33 C-280.96 77.17 -280.96 77.17 -280 77 C-280 76.34 -280 75.68 -280 75 C-279.03 74.71 -278.06 74.42 -277.06 74.12 C-273.89 73.36 -273.89 73.36 -273 71 C-270.35 70.41 -267.71 70.26 -265 70 C-265 69.01 -265 68.02 -265 67 C-262.36 66.67 -259.72 66.34 -257 66 C-256.67 65.01 -256.34 64.02 -256 63 C-253.67 62.32 -251.34 61.66 -249 61 C-248.34 60.01 -247.68 59.02 -247 58 C-244.84 57.27 -244.84 57.27 -242.38 56.81 C-241.56 56.65 -240.74 56.5 -239.9 56.33 C-239.27 56.22 -238.65 56.11 -238 56 C-238 55.34 -238 54.68 -238 54 C-234.53 53.51 -234.53 53.51 -231 53 C-230.67 52.01 -230.34 51.02 -230 50 C-226.37 49.67 -222.74 49.34 -219 49 C-218.67 48.01 -218.34 47.02 -218 46 C-215.57 45.12 -215.57 45.12 -212.56 44.44 C-208.33 43.56 -208.33 43.56 -205 41 C-202.67 40.33 -200.33 39.67 -198 39 C-197.34 38.34 -196.68 37.68 -196 37 C-193.4 36.59 -193.4 36.59 -190.38 36.38 C-189.37 36.3 -188.37 36.23 -187.34 36.15 C-186.57 36.1 -185.79 36.05 -185 36 C-184.67 35.01 -184.34 34.02 -184 33 C-183.23 32.88 -182.46 32.76 -181.66 32.63 C-180.66 32.47 -179.66 32.3 -178.62 32.12 C-177.63 31.96 -176.63 31.8 -175.6 31.63 C-172.86 31.2 -172.86 31.2 -171 29 C-168.72 28.43 -166.43 27.94 -164.12 27.5 C-160.03 26.71 -156.7 25.86 -153 24 C-150.42 23.59 -150.42 23.59 -147.75 23.38 C-146.86 23.3 -145.97 23.23 -145.05 23.15 C-144.37 23.1 -143.7 23.05 -143 23 C-143 22.34 -143 21.68 -143 21 C-134.58 19.52 -134.58 19.52 -126 18 C-126 17.34 -126 16.68 -126 16 C-125.05 15.94 -124.09 15.88 -123.11 15.82 C-121.23 15.69 -121.23 15.69 -119.31 15.56 C-118.07 15.48 -116.83 15.4 -115.55 15.32 C-112.62 15.06 -109.87 14.65 -107 14 C-107 13.34 -107 12.68 -107 12 C-106.31 11.95 -105.62 11.9 -104.9 11.85 C-101.79 11.62 -98.68 11.37 -95.56 11.12 C-94.47 11.05 -93.39 10.97 -92.26 10.89 C-91.23 10.8 -90.19 10.72 -89.13 10.63 C-87.69 10.52 -87.69 10.52 -86.22 10.41 C-85.49 10.28 -84.76 10.14 -84 10 C-83.67 9.34 -83.34 8.68 -83 8 C-80.52 7.62 -80.52 7.62 -77.24 7.44 C-76.06 7.36 -74.88 7.29 -73.66 7.21 C-71.78 7.11 -71.78 7.11 -69.88 7 C-59.26 6.51 -59.26 6.51 -49 4 C-49 3.67 -49 3.34 -49 3 C-32.83 2.67 -16.66 2.34 0 2 C0 1.34 0 0.68 0 0 Z M373 604 C373 606.64 373 609.28 373 612 C373.33 612 373.66 612 374 612 C374 609.36 374 606.72 374 604 C373.67 604 373.34 604 373 604 Z M535 991 C536 993 536 993 536 993 Z M-305 1174 C-303.51 1174.99 -303.51 1174.99 -302 1176 C-302 1175.34 -302 1174.68 -302 1174 C-302.99 1174 -303.98 1174 -305 1174 Z " fill="#CB1328" transform="translate(630,0)"/>
<path d="M0 0 C0.85 0.05 0.85 0.05 1.71 0.11 C4.27 0.27 6.82 0.41 9.38 0.56 C10.26 0.62 11.15 0.67 12.07 0.73 C12.92 0.78 13.77 0.83 14.65 0.88 C15.83 0.95 15.83 0.95 17.03 1.02 C19.08 1.14 19.08 1.14 21 0 C21.5 0.99 21.5 0.99 22 2 C24.32 2.32 24.32 2.32 27.06 2.38 C32.64 2.76 36.2 4.2 41 7 C41.33 6.34 41.66 5.68 42 5 C42 5.66 42 6.32 42 7 C43.3 7.12 44.6 7.25 45.94 7.38 C48.15 7.59 48.15 7.59 50 8 C50.5 8.99 50.5 8.99 51 10 C53.04 11.09 53.04 11.09 55.44 12.06 C56.24 12.4 57.04 12.75 57.87 13.1 C58.57 13.4 59.28 13.69 60 14 C60.99 14.5 60.99 14.5 62 15 C62.33 14.34 62.66 13.68 63 13 C63 13.99 63 14.98 63 16 C64.48 16.5 64.48 16.5 66 17 C67.4 17.52 68.79 18.04 70.19 18.56 C71.26 18.97 71.26 18.97 72.36 19.38 C72.9 19.58 73.44 19.79 74 20 C74 20.66 74 21.32 74 22 C75.65 22.66 77.3 23.32 79 24 C79.33 23.34 79.66 22.68 80 22 C80 22.66 80 23.32 80 24 C80.66 24 81.32 24 82 24 C82 24.66 82 25.32 82 26 C85.05 27.01 85.05 27.01 88 26 C88 26.66 88 27.32 88 28 C88.76 28.29 89.53 28.58 90.31 28.88 C93 30 93 30 96 32 C96.33 31.34 96.66 30.68 97 30 C97.33 31.32 97.66 32.64 98 34 C99.32 34 100.64 34 102 34 C102 34.66 102 35.32 102 36 C102.66 36 103.32 36 104 36 C104.33 35.34 104.66 34.68 105 34 C105.66 34.99 106.32 35.98 107 37 C108.93 38.3 108.93 38.3 111 39 C111.66 38.67 112.32 38.34 113 38 C113.33 38.66 113.66 39.32 114 40 C115.65 40.7 117.32 41.37 119 42 C119.33 42.33 119.66 42.66 120 43 C120.66 42.67 121.32 42.34 122 42 C122 42.99 122 43.98 122 45 C124.49 45.69 126.38 46 129 46 C129.33 46.99 129.66 47.98 130 49 C131.32 49 132.64 49 134 49 C134 49.66 134 50.32 134 51 C135.65 51 137.3 51 139 51 C139 51.66 139 52.32 139 53 C142.96 53.99 142.96 53.99 147 55 C147 55.66 147 56.32 147 57 C150.96 57.99 150.96 57.99 155 59 C155 59.66 155 60.32 155 61 C157.02 61.16 159.04 61.33 161.05 61.49 C163 62 163 62 165 65 C167.33 65.69 169.66 66.36 172 67 C172.33 67.66 172.66 68.32 173 69 C174.88 69.9 174.88 69.9 177.06 70.62 C177.8 70.89 178.53 71.15 179.29 71.41 C179.85 71.61 180.42 71.8 181 72 C181 72.66 181 73.32 181 74 C181.89 74.1 182.77 74.21 183.69 74.31 C187.06 75.01 189.17 76.09 192 78 C192.33 77.34 192.66 76.68 193 76 C193.33 76.99 193.66 77.98 194 79 C196.98 80.96 198.26 81 202 81 C202 81.66 202 82.32 202 83 C204.65 84.46 205.89 85 209 85 C209.33 85.66 209.66 86.32 210 87 C210.66 87 211.32 87 212 87 C212 87.66 212 88.32 212 89 C215.05 90.01 215.05 90.01 218 89 C218 89.66 218 90.32 218 91 C218.76 91.29 219.53 91.58 220.31 91.88 C223 93 223 93 226 95 C226.33 94.34 226.66 93.68 227 93 C227.66 93.99 228.32 94.98 229 96 C229.99 96.33 230.98 96.66 232 97 C232 97.66 232 98.32 232 99 C232.66 99 233.32 99 234 99 C234.33 98.34 234.66 97.68 235 97 C235.66 97.99 236.32 98.98 237 100 C238.99 100.69 240.99 101.36 243 102 C243.33 102.66 243.66 103.32 244 104 C245.86 104.61 245.86 104.61 248 105 C249.33 105.33 250.67 105.67 252 106 C252 106.66 252 107.32 252 108 C254.67 108.89 257.24 109.48 260 110 C260 110.66 260 111.32 260 112 C261.32 112 262.64 112 264 112 C264 112.66 264 113.32 264 114 C265.65 114 267.3 114 269 114 C269 114.66 269 115.32 269 116 C271.64 116.66 274.28 117.32 277 118 C277 118.66 277 119.32 277 120 C277.8 120.23 278.61 120.45 279.44 120.69 C283.28 122.1 286.55 123.96 290.05 126.07 C290.69 126.38 291.34 126.69 292 127 C292.66 126.67 293.32 126.34 294 126 C294.33 126.66 294.66 127.32 295 128 C296.15 128.33 297.31 128.66 298.5 129 C299.65 129.33 300.81 129.66 302 130 C302.33 130.66 302.66 131.32 303 132 C304.89 132.68 304.89 132.68 307.06 133.12 C308.16 133.38 308.16 133.38 309.29 133.63 C309.85 133.75 310.42 133.88 311 134 C311 134.99 311 135.98 311 137 C313.64 137.33 316.28 137.66 319 138 C319 138.99 319 139.98 319 141 C321.31 141.33 323.62 141.66 326 142 C326.33 142.99 326.66 143.98 327 145 C329.11 145.81 329.11 145.81 331.56 146.19 C332.39 146.35 333.22 146.5 334.07 146.67 C334.7 146.78 335.34 146.89 336 147 C336 147.66 336 148.32 336 149 C337.98 149.33 339.96 149.66 342 150 C342 150.66 342 151.32 342 152 C342.77 152.15 342.77 152.15 343.56 152.31 C348.06 153.58 352.11 155.41 356 158 C356.33 157.34 356.66 156.68 357 156 C357.78 156.8 358.57 157.61 359.38 158.44 C361.72 160.99 361.72 160.99 364 162 C364.33 161.34 364.66 160.68 365 160 C365.66 160.99 366.32 161.98 367 163 C369.53 164.38 369.53 164.38 372.44 165.56 C375.54 166.89 378.18 168.12 381 170 C381.33 169.34 381.66 168.68 382 168 C382 168.99 382 169.98 382 171 C382.99 171.33 383.98 171.66 385 172 C386.4 172.52 387.79 173.04 389.19 173.56 C389.9 173.83 390.62 174.1 391.36 174.38 C391.9 174.58 392.44 174.79 393 175 C393 175.66 393 176.32 393 177 C396.05 178.01 396.05 178.01 399 177 C399 177.66 399 178.32 399 179 C401.64 179.66 404.28 180.32 407 181 C407 181.66 407 182.32 407 183 C407.95 183.12 408.9 183.25 409.88 183.38 C413 184 413 184 415 186 C417.28 187.52 419.56 188.74 422 190 C422.66 189.67 423.32 189.34 424 189 C424.33 189.66 424.66 190.32 425 191 C427 191.68 429 192.35 431 193 C431.66 193.66 432.32 194.32 433 195 C434.97 195.67 434.97 195.67 437.12 196.12 C438.4 196.41 439.68 196.7 441 197 C441 197.99 441 198.98 441 200 C443.64 200.33 446.28 200.66 449 201 C449 201.99 449 202.98 449 204 C450.61 204.15 450.61 204.15 452.25 204.31 C456.04 205.01 457.13 205.68 460 208 C461.05 208.35 462.1 208.7 463.19 209.06 C464.12 209.37 465.04 209.68 466 210 C466.33 210.66 466.66 211.32 467 212 C468.15 212.33 469.31 212.66 470.5 213 C471.65 213.33 472.81 213.66 474 214 C474.33 214.66 474.66 215.32 475 216 C477.63 217.17 480.27 218.09 483 219 C483 219.66 483 220.32 483 221 C485.47 221.99 485.47 221.99 488 223 C488 223.66 488 224.32 488 225 C488.89 225.24 489.78 225.48 490.7 225.72 C494.33 227.13 496.13 228.65 498.81 231.44 C499.58 232.22 500.35 233 501.14 233.81 C503 236 503 236 504 239 C504.99 239.33 505.98 239.66 507 240 C509.77 244.12 511.62 246.91 511 252 C511.99 252.33 512.98 252.66 514 253 C516.32 257.65 515.35 264.5 515.41 269.67 C515.43 271.29 515.46 272.92 515.51 274.55 C515.97 290.86 515.97 290.86 510.49 296.88 C509 298 509 298 507 298 C507.08 298.91 507.16 299.82 507.25 300.75 C507 304 507 304 505.12 306.38 C503 308 503 308 501 308 C500.34 309.32 499.68 310.64 499 312 C498.34 312 497.68 312 497 312 C496.34 313.32 495.68 314.64 495 316 C494.01 316 493.02 316 492 316 C492 316.66 492 317.32 492 318 C490.35 318 488.7 318 487 318 C486.73 318.64 486.46 319.28 486.19 319.94 C485 322 485 322 482 323 C482 323.66 482 324.32 482 325 C479.35 326.46 478.11 327 475 327 C474.57 327.64 474.13 328.28 473.69 328.94 C471.39 331.74 469.48 331.48 466 332 C465.34 332.99 464.68 333.98 464 335 C460.38 335.19 460.38 335.19 457 335 C457 335.99 457 336.98 457 338 C454.29 339.35 451.99 339.07 449 339 C449 339.66 449 340.32 449 341 C446 343 446 343 443.5 343.44 C440.96 343.77 440.96 343.77 439.56 345.5 C437.3 347.67 435.04 347.66 432 348 C432 348.66 432 349.32 432 350 C431.01 350 430.02 350 429 350 C429 350.66 429 351.32 429 352 C426.36 352.66 423.72 353.32 421 354 C421 354.66 421 355.32 421 356 C419.02 356 417.04 356 415 356 C415 356.66 415 357.32 415 358 C411.77 360.15 410.72 360.2 407 360 C407 360.66 407 361.32 407 362 C406.48 362.22 405.96 362.44 405.42 362.66 C401.01 364.56 396.76 366.62 392.56 368.94 C391.64 369.44 390.72 369.95 389.77 370.47 C387.96 371.47 386.16 372.48 384.36 373.5 C378.9 376.45 375.21 377.58 369 377 C368.67 378.32 368.34 379.64 368 381 C365.69 381.33 363.38 381.66 361 382 C360.67 382.99 360.34 383.98 360 385 C358.89 385.08 357.77 385.16 356.62 385.25 C352.94 385.58 352.94 385.58 351.56 388.06 C351.38 388.7 351.19 389.34 351 390 C348.69 390 346.38 390 344 390 C343.81 390.62 343.63 391.24 343.44 391.88 C341.3 395.04 338.6 395.1 335 396 C334.34 396.66 333.68 397.32 333 398 C329.88 398.12 329.88 398.12 327 398 C326.34 399.32 325.68 400.64 325 402 C323.02 402 321.04 402 319 402 C318.34 403.32 317.68 404.64 317 406 C314.69 406 312.38 406 310 406 C310 406.99 310 407.98 310 409 C307.36 409.66 304.72 410.32 302 411 C302 411.66 302 412.32 302 413 C301.01 413 300.02 413 299 413 C299 413.66 299 414.32 299 415 C298.26 415.1 297.51 415.21 296.75 415.31 C293.96 415.81 293.96 415.81 292 417.56 C289.51 419.35 288 419.25 285 419 C285 419.66 285 420.32 285 421 C281.77 423.15 280.72 423.2 277 423 C277 423.66 277 424.32 277 425 C274 427 274 427 271.36 427.84 C266.27 429.6 261.72 432.29 257.01 434.9 C256.28 435.3 255.55 435.69 254.8 436.1 C254.14 436.47 253.48 436.83 252.81 437.21 C251 438 251 438 248 438 C248 438.66 248 439.32 248 440 C246.35 440 244.7 440 243 440 C243 440.66 243 441.32 243 442 C240.28 443.7 238.01 444.16 234.88 444.44 C233.6 444.62 232.32 444.81 231 445 C230.34 445.99 229.68 446.98 229 448 C225.37 448.19 225.37 448.19 222 448 C221.67 449.65 221.34 451.3 221 453 C218.69 452.67 216.38 452.34 214 452 C213.34 453.65 212.68 455.3 212 457 C209.69 457 207.38 457 205 457 C204.67 458.32 204.34 459.64 204 461 C201.69 461 199.38 461 197 461 C196.79 461.64 196.59 462.28 196.38 462.94 C195.69 463.96 195.69 463.96 195 465 C193.01 465.37 191.01 465.71 189 466 C188.34 466.99 187.68 467.98 187 469 C183.37 469.19 183.37 469.19 180 469 C179.67 470.32 179.34 471.64 179 473 C176.69 473 174.38 473 172 473 C171.67 474.32 171.34 475.64 171 477 C168.24 477.6 165.84 478 163 478 C163 478.66 163 479.32 163 480 C159.77 482.15 158.72 482.2 155 482 C155 482.66 155 483.32 155 484 C151.31 486.46 148.3 487.01 144 488 C144 488.66 144 489.32 144 490 C142.02 490 140.04 490 138 490 C137.67 490.99 137.34 491.98 137 493 C134.69 493.33 132.38 493.66 130 494 C130 494.66 130 495.32 130 496 C124.37 499 124.37 499 121 499 C121 499.66 121 500.32 121 501 C120.01 501 119.02 501 118 501 C118 501.66 118 502.32 118 503 C116.35 503 114.7 503 113 503 C113 503.66 113 504.32 113 505 C109.91 506.76 108.77 507 105 507 C105 507.66 105 508.32 105 509 C102.28 510.7 100.01 511.16 96.88 511.44 C95.6 511.62 94.32 511.81 93 512 C92.34 512.99 91.68 513.98 91 515 C87.38 515.19 87.38 515.19 84 515 C83.01 517.47 83.01 517.47 82 520 C79.69 520 77.38 520 75 520 C74.67 521.32 74.34 522.64 74 524 C71.69 524 69.38 524 67 524 C66.67 525.32 66.34 526.64 66 528 C64.33 528.15 64.33 528.15 62.62 528.31 C61.43 528.54 60.23 528.77 59 529 C58.34 529.99 57.68 530.98 57 532 C53.37 532.19 53.37 532.19 50 532 C50 532.99 50 533.98 50 535 C46.96 536.52 43.78 536.34 40.41 536.52 C37.94 536.76 37.94 536.76 36.68 538.5 C34.36 540.57 32.76 540.43 29.68 540.51 C28.65 540.55 27.62 540.58 26.56 540.62 C24.95 540.65 24.95 540.65 23.31 540.69 C21.69 540.74 21.69 540.74 20.03 540.79 C17.35 540.87 14.68 540.94 12 541 C12 541.66 12 542.32 12 543 C8.62 543.12 8.62 543.12 5 543 C4.34 542.34 3.68 541.68 3 541 C3 541.33 3 541.66 3 542 C0.58 542.08 -1.83 542.14 -4.25 542.19 C-5.27 542.23 -5.27 542.23 -6.32 542.26 C-10.63 542.33 -12.79 541.86 -16 539 C-16.99 538.84 -17.98 538.67 -19 538.5 C-22.25 537.96 -23.51 537.06 -26 535 C-26.99 534.67 -27.98 534.34 -29 534 C-29 533.34 -29 532.68 -29 532 C-29.64 531.88 -30.28 531.75 -30.94 531.62 C-31.62 531.42 -32.3 531.21 -33 531 C-33.33 530.34 -33.66 529.68 -34 529 C-35.76 528.02 -37.52 527.05 -39.28 526.08 C-41.46 524.71 -42.73 523.24 -44 521 C-44 520.34 -44 519.68 -44 519 C-44.66 519 -45.32 519 -46 519 C-46 518.01 -46 517.02 -46 516 C-46.99 515.67 -47.98 515.34 -49 515 C-52 510.67 -52 510.67 -52 508 C-52.99 507.67 -53.98 507.34 -55 507 C-56.69 503.07 -57.97 499.19 -59.06 495.06 C-59.53 493.55 -59.53 493.55 -60 492 C-60.66 491.67 -61.32 491.34 -62 491 C-61.34 491 -60.68 491 -60 491 C-60.33 489.35 -60.66 487.7 -61 486 C-61.66 486 -62.32 486 -63 486 C-63 345.09 -63 204.18 -63 59 C-62.34 59 -61.68 59 -61 59 C-60.96 58.16 -60.93 57.31 -60.89 56.45 C-60.82 55.35 -60.76 54.25 -60.69 53.12 C-60.63 52.03 -60.57 50.94 -60.51 49.82 C-60.34 48.89 -60.17 47.96 -60 47 C-59.01 46.34 -58.02 45.68 -57 45 C-56.21 43.05 -56.21 43.05 -55.81 40.88 C-55.54 39.6 -55.28 38.32 -55 37 C-54.01 37 -53.02 37 -52 37 C-51.94 36.13 -51.88 35.27 -51.81 34.38 C-50.83 30.28 -48.84 27.96 -46 25 C-45.11 24.05 -44.23 23.1 -43.31 22.12 C-41 20 -41 20 -39 20 C-38.75 19.41 -38.51 18.81 -38.25 18.2 C-36.8 15.65 -35.32 14.5 -32.94 12.81 C-32.22 12.3 -31.51 11.79 -30.78 11.27 C-30.19 10.85 -29.6 10.43 -29 10 C-28.67 9.67 -28.34 9.34 -28 9 C-28 8.67 -28 8.34 -28 8 C-24.7 7.34 -21.4 6.68 -18 6 C-18 5.34 -18 4.68 -18 4 C-12.06 3.01 -6.12 2.02 0 1 C0 0.67 0 0.34 0 0 Z " fill="#CB1328" transform="translate(63,361)"/>
<path d="M0 0 C4.87 1.18 7.04 4.1 10.11 7.78 C14.05 12.41 18.35 16.66 23.06 20.5 C25.44 22.52 27.26 24.39 29.25 26.75 C32.74 30.87 36.66 34.34 40.71 37.9 C43.46 40.42 45.68 43.08 48 46 C49.64 47.69 51.31 49.35 53 51 C53.52 51.53 54.05 52.07 54.59 52.62 C57.64 55.73 60.75 58.68 64.06 61.5 C67.8 64.71 70.89 68.19 74 72 C73.67 72.66 73.34 73.32 73 74 C63.48 64.5 53.96 55 44.45 45.5 C40.03 41.09 35.61 36.67 31.19 32.26 C26.93 28.01 22.67 23.76 18.41 19.5 C16.78 17.88 15.15 16.25 13.52 14.63 C11.24 12.36 8.97 10.09 6.7 7.81 C6.02 7.14 5.34 6.46 4.63 5.76 C4.02 5.14 3.4 4.53 2.77 3.89 C2.23 3.35 1.69 2.82 1.14 2.26 C0 1 0 1 0 0 Z " fill="#E98994" transform="translate(1054,153)"/>
<path d="M0 0 C11.22 0 22.44 0 34 0 C34 0.33 34 0.66 34 1 C22.78 1 11.56 1 0 1 C0 0.67 0 0.34 0 0 Z " fill="#FDFDFD" transform="translate(649,277)"/>
<path d="M0 0 C11.22 0 22.44 0 34 0 C34 0.33 34 0.66 34 1 C22.78 1 11.56 1 0 1 C0 0.67 0 0.34 0 0 Z " fill="#FDFDFD" transform="translate(614,277)"/>
<path d="M0 0 C0.44 0.38 0.87 0.75 1.32 1.14 C1.92 1.65 2.51 2.16 3.12 2.69 C3.76 3.24 4.4 3.78 5.05 4.35 C6.26 5.37 7.49 6.39 8.73 7.37 C11.62 9.66 13.7 11.5 15 15 C11.15 13.42 8.75 10.96 5.88 8 C5.01 7.11 4.14 6.23 3.24 5.31 C2.5 4.55 1.76 3.79 1 3 C0.34 2.34 -0.32 1.68 -1 1 C-0.67 0.67 -0.34 0.34 0 0 Z " fill="#E98994" transform="translate(551,589)"/>
<path d="M0 0 C0.33 0 0.66 0 1 0 C1 9.9 1 19.8 1 30 C0.67 30 0.34 30 0 30 C0 20.1 0 10.2 0 0 Z " fill="#FDFDFD" transform="translate(579,618)"/>
<path d="M0 0 C5.94 0 11.88 0 18 0 C18 0.33 18 0.66 18 1 C12.06 1 6.12 1 0 1 C0 0.67 0 0.34 0 0 Z " fill="#FDFDFD" transform="translate(77,902)"/>
<path d="M0 0 C4.95 0 9.9 0 15 0 C15 0.33 15 0.66 15 1 C10.05 1 5.1 1 0 1 C0 0.67 0 0.34 0 0 Z " fill="#FDFDFD" transform="translate(562,1259)"/>
<path d="M0 0 C0.33 0 0.66 0 1 0 C1 4.95 1 9.9 1 15 C0.67 15 0.34 15 0 15 C0 10.05 0 5.1 0 0 Z " fill="#FDFDFD" transform="translate(1276,553)"/>
<path d="M0 0 C4.62 0 9.24 0 14 0 C14 0.33 14 0.66 14 1 C9.38 1 4.76 1 0 1 C0 0.67 0 0.34 0 0 Z " fill="#FDFDFD" transform="translate(724,1259)"/>
<path d="M0 0 C4.62 0 9.24 0 14 0 C14 0.33 14 0.66 14 1 C9.38 1 4.76 1 0 1 C0 0.67 0 0.34 0 0 Z " fill="#FDFDFD" transform="translate(585,281)"/>
<path d="M0 0 C3.96 0 7.92 0 12 0 C12 0.33 12 0.66 12 1 C8.04 1 4.08 1 0 1 C0 0.67 0 0.34 0 0 Z " fill="#CB1328" transform="translate(69,360)"/>
<path d="M0 0 C3.3 0 6.6 0 10 0 C10 0.33 10 0.66 10 1 C6.7 1 3.4 1 0 1 C0 0.67 0 0.34 0 0 Z " fill="#FDFDFD" transform="translate(752,1255)"/>
<path d="M0 0 C3.3 0 6.6 0 10 0 C10 0.33 10 0.66 10 1 C6.7 1 3.4 1 0 1 C0 0.67 0 0.34 0 0 Z " fill="#FDFDFD" transform="translate(795,1246)"/>
<path d="M0 0 C0.33 0 0.66 0 1 0 C1 3.3 1 6.6 1 10 C0.67 10 0.34 10 0 10 C0 6.7 0 3.4 0 0 Z " fill="#FDFDFD" transform="translate(1263,774)"/>
<path d="M0 0 C0.33 0 0.66 0 1 0 C1 3.3 1 6.6 1 10 C0.67 10 0.34 10 0 10 C0 6.7 0 3.4 0 0 Z " fill="#FDFDFD" transform="translate(1272,526)"/>
<path d="M0 0 C2.64 0 5.28 0 8 0 C8 0.33 8 0.66 8 1 C5.36 1 2.72 1 0 1 C0 0.67 0 0.34 0 0 Z " fill="#FDFDFD" transform="translate(537,1255)"/>
<path d="M0 0 C0.33 0 0.66 0 1 0 C1 2.64 1 5.28 1 8 C0.67 8 0.34 8 0 8 C0 5.36 0 2.72 0 0 Z " fill="#FDFDFD" transform="translate(1272,731)"/>
<path d="M0 0 C2.31 0 4.62 0 7 0 C7 0.33 7 0.66 7 1 C4.69 1 2.38 1 0 1 C0 0.67 0 0.34 0 0 Z " fill="#FDFDFD" transform="translate(812,1242)"/>
<path d="M0 0 C0.33 0 0.66 0 1 0 C1 2.31 1 4.62 1 7 C0.67 7 0.34 7 0 7 C0 4.69 0 2.38 0 0 Z " fill="#FDFDFD" transform="translate(1263,482)"/>
<path d="M0 0 C2.31 0 4.62 0 7 0 C7 0.33 7 0.66 7 1 C4.69 1 2.38 1 0 1 C0 0.67 0 0.34 0 0 Z " fill="#FDFDFD" transform="translate(410,365)"/>
<path d="M0 0 C1.98 0 3.96 0 6 0 C6 0.33 6 0.66 6 1 C4.02 1 2.04 1 0 1 C0 0.67 0 0.34 0 0 Z " fill="#FDFDFD" transform="translate(518,1251)"/>
<path d="M0 0 C1.98 0 3.96 0 6 0 C6 0.33 6 0.66 6 1 C4.02 1 2.04 1 0 1 C0 0.67 0 0.34 0 0 Z " fill="#FDFDFD" transform="translate(416,1221)"/>
<path d="M0 0 C0.33 0 0.66 0 1 0 C1 1.98 1 3.96 1 6 C0.67 6 0.34 6 0 6 C0 4.02 0 2.04 0 0 Z " fill="#FDFDFD" transform="translate(1255,807)"/>
<path d="M0 0 C1.65 0 3.3 0 5 0 C5 0.33 5 0.66 5 1 C3.35 1 1.7 1 0 1 C0 0.67 0 0.34 0 0 Z " fill="#FDFDFD" transform="translate(828,1238)"/>
<path d="M0 0 C1.65 0 3.3 0 5 0 C5 0.33 5 0.66 5 1 C3.35 1 1.7 1 0 1 C0 0.67 0 0.34 0 0 Z " fill="#FDFDFD" transform="translate(840,1234)"/>
<path d="M0 0 C1.65 0 3.3 0 5 0 C5 0.33 5 0.66 5 1 C3.35 1 1.7 1 0 1 C0 0.67 0 0.34 0 0 Z " fill="#FDFDFD" transform="translate(887,1217)"/>
<path d="M0 0 C1.65 0 3.3 0 5 0 C5 0.33 5 0.66 5 1 C3.35 1 1.7 1 0 1 C0 0.67 0 0.34 0 0 Z " fill="#FDFDFD" transform="translate(102,898)"/>
<path d="M0 0 C0.33 0 0.66 0 1 0 C1 1.65 1 3.3 1 5 C0.67 5 0.34 5 0 5 C0 3.35 0 1.7 0 0 Z " fill="#FDFDFD" transform="translate(1238,858)"/>
<path d="M0 0 C0.33 0 0.66 0 1 0 C1 1.65 1 3.3 1 5 C0.67 5 0.34 5 0 5 C0 3.35 0 1.7 0 0 Z " fill="#FDFDFD" transform="translate(1259,795)"/>
<path d="M0 0 C1.65 0 3.3 0 5 0 C5 0.33 5 0.66 5 1 C3.35 1 1.7 1 0 1 C0 0.67 0 0.34 0 0 Z " fill="#FDFDFD" transform="translate(527,298)"/>
<path d="M0 0 C4 1 4 1 4 1 Z " fill="#FDFDFD" transform="translate(878,1221)"/>
<path d="M0 0 C1 4 1 4 1 4 Z " fill="#FDFDFD" transform="translate(1217,907)"/>
<path d="M0 0 C1 4 1 4 1 4 Z " fill="#FDFDFD" transform="translate(1221,899)"/>
<path d="M0 0 C1 4 1 4 1 4 Z " fill="#FDFDFD" transform="translate(1230,878)"/>
<path d="M0 0 C4 1 4 1 4 1 Z " fill="#FDFDFD" transform="translate(148,877)"/>
<path d="M0 0 C4 1 4 1 4 1 Z " fill="#FDFDFD" transform="translate(157,873)"/>
<path d="M0 0 C4 1 4 1 4 1 Z " fill="#FDFDFD" transform="translate(278,814)"/>
<path d="M0 0 C4 1 4 1 4 1 Z " fill="#FDFDFD" transform="translate(286,810)"/>
<path d="M0 0 C1 4 1 4 1 4 Z " fill="#FDFDFD" transform="translate(1268,507)"/>
<path d="M0 0 C1 4 1 4 1 4 Z " fill="#FDFDFD" transform="translate(1255,453)"/>
<path d="M0 0 C1 4 1 4 1 4 Z " fill="#FDFDFD" transform="translate(1251,440)"/>
<path d="M0 0 C4 1 4 1 4 1 Z " fill="#FDFDFD" transform="translate(272,298)"/>
<path d="M0 0 C4 1 4 1 4 1 Z " fill="#FDFDFD" transform="translate(539,294)"/>
<path d="M0 0 C4 1 4 1 4 1 Z " fill="#FDFDFD" transform="translate(551,290)"/>
<path d="M0 0 C3 1 3 1 3 1 Z " fill="#FDFDFD" transform="translate(777,1251)"/>
<path d="M0 0 C3 1 3 1 3 1 Z " fill="#FDFDFD" transform="translate(466,1238)"/>
<path d="M0 0 C3 1 3 1 3 1 Z " fill="#FDFDFD" transform="translate(853,1230)"/>
<path d="M0 0 C3 1 3 1 3 1 Z " fill="#FDFDFD" transform="translate(867,1225)"/>
<path d="M0 0 C3 1 3 1 3 1 Z " fill="#FDFDFD" transform="translate(925,1200)"/>
<path d="M0 0 C3 1 3 1 3 1 Z " fill="#FDFDFD" transform="translate(933,1196)"/>
<path d="M0 0 C3 1 3 1 3 1 Z " fill="#FDFDFD" transform="translate(941,1192)"/>
<path d="M0 0 C3 1 3 1 3 1 Z " fill="#FDFDFD" transform="translate(1004,1154)"/>
<path d="" fill="#FDFDFD" transform="translate(0,0)"/>
<path d="" fill="#FDFDFD" transform="translate(0,0)"/>
<path d="M0 0 C3 1 3 1 3 1 Z " fill="#CB1328" transform="translate(832,935)"/>
<path d="" fill="#FDFDFD" transform="translate(0,0)"/>
<path d="M0 0 C3 1 3 1 3 1 Z " fill="#FDFDFD" transform="translate(114,894)"/>
<path d="" fill="#FDFDFD" transform="translate(0,0)"/>
<path d="M0 0 C0.33 0.66 0.66 1.32 1 2 C0.34 1.67 -0.32 1.34 -1 1 C-0.67 0.67 -0.34 0.34 0 0 Z " fill="#CB1328" transform="translate(920,860)"/>
<path d="" fill="#FDFDFD" transform="translate(0,0)"/>
<path d="M0 0 C3 1 3 1 3 1 Z " fill="#FDFDFD" transform="translate(236,835)"/>
<path d="M0 0 C3 1 3 1 3 1 Z " fill="#FDFDFD" transform="translate(244,831)"/>
<path d="" fill="#FDFDFD" transform="translate(0,0)"/>
<path d="M0 0 C3 1 3 1 3 1 Z " fill="#FDFDFD" transform="translate(295,806)"/>
<path d="M0 0 C3 1 3 1 3 1 Z " fill="#FDFDFD" transform="translate(374,768)"/>
<path d="" fill="#FDFDFD" transform="translate(0,0)"/>
<path d="M0 0 C3 1 3 1 3 1 Z " fill="#FDFDFD" transform="translate(409,751)"/>
<path d="M0 0 C3 1 3 1 3 1 Z " fill="#FDFDFD" transform="translate(417,747)"/>
<path d="M0 0 C3 1 3 1 3 1 Z " fill="#FDFDFD" transform="translate(425,743)"/>
<path d="" fill="#FDFDFD" transform="translate(0,0)"/>
<path d="M0 0 C3 1 3 1 3 1 Z " fill="#FDFDFD" transform="translate(768,298)"/>
<path d="M0 0 C2 1 2 1 2 1 Z " fill="#FDFDFD" transform="translate(454,1234)"/>
<path d="M0 0 C2 1 2 1 2 1 Z " fill="#FDFDFD" transform="translate(442,1230)"/>
<path d="M0 0 C2 1 2 1 2 1 Z " fill="#FDFDFD" transform="translate(899,1213)"/>
<path d="M0 0 C2 1 2 1 2 1 Z " fill="#FDFDFD" transform="translate(917,1204)"/>
<path d="M0 0 C2 1 2 1 2 1 Z " fill="#FDFDFD" transform="translate(949,1188)"/>
<path d="M0 0 C2 1 2 1 2 1 Z " fill="#FDFDFD" transform="translate(966,1179)"/>
<path d="M0 0 C2 1 2 1 2 1 Z " fill="#FDFDFD" transform="translate(979,1171)"/>
<path d="M0 0 C2 1 2 1 2 1 Z " fill="#FDFDFD" transform="translate(1034,1133)"/>
<path d="M0 0 C2 1 2 1 2 1 Z " fill="#FDFDFD" transform="translate(1055,1116)"/>
<path d="M0 0 C2 1 2 1 2 1 Z " fill="#CB1328" transform="translate(189,1068)"/>
<path d="" fill="#FDFDFD" transform="translate(0,0)"/>
<path d="" fill="#FDFDFD" transform="translate(0,0)"/>
<path d="M0 0 C2 1 2 1 2 1 Z " fill="#CB1328" transform="translate(682,985)"/>
<path d="" fill="#FDFDFD" transform="translate(0,0)"/>
<path d="M0 0 C2 1 2 1 2 1 Z " fill="#CB1328" transform="translate(273,965)"/>
<path d="" fill="#FDFDFD" transform="translate(0,0)"/>
<path d="" fill="#FDFDFD" transform="translate(0,0)"/>
<path d="" fill="#FDFDFD" transform="translate(0,0)"/>
<path d="M0 0 C2 1 2 1 2 1 Z " fill="#FDFDFD" transform="translate(123,890)"/>
<path d="M0 0 C2 1 2 1 2 1 Z " fill="#FDFDFD" transform="translate(141,881)"/>
<path d="M0 0 C2 1 2 1 2 1 Z " fill="#FDFDFD" transform="translate(194,856)"/>
<path d="M0 0 C2 1 2 1 2 1 Z " fill="#FDFDFD" transform="translate(202,852)"/>
<path d="M0 0 C2 1 2 1 2 1 Z " fill="#FDFDFD" transform="translate(229,839)"/>
<path d="M0 0 C2 1 2 1 2 1 Z " fill="#FDFDFD" transform="translate(253,827)"/>
<path d="M0 0 C2 1 2 1 2 1 Z " fill="#FDFDFD" transform="translate(271,818)"/>
<path d="M0 0 C2 1 2 1 2 1 Z " fill="#FDFDFD" transform="translate(367,772)"/>
<path d="M0 0 C2 1 2 1 2 1 Z " fill="#FDFDFD" transform="translate(383,764)"/>
<path d="M0 0 C2 1 2 1 2 1 Z " fill="#FDFDFD" transform="translate(433,739)"/>
<path d="M0 0 C2 1 2 1 2 1 Z " fill="#FDFDFD" transform="translate(497,709)"/>
<path d="M0 0 C2 1 2 1 2 1 Z " fill="#FDFDFD" transform="translate(513,701)"/>
<path d="M0 0 C2 1 2 1 2 1 Z " fill="#FDFDFD" transform="translate(521,697)"/>
<path d="M0 0 C2 1 2 1 2 1 Z " fill="#FDFDFD" transform="translate(539,688)"/>
<path d="M0 0 C2 1 2 1 2 1 Z " fill="#FDFDFD" transform="translate(551,680)"/>
<path d="" fill="#FDFDFD" transform="translate(0,0)"/>
<path d="" fill="#FDFDFD" transform="translate(0,0)"/>
<path d="" fill="#FDFDFD" transform="translate(0,0)"/>
<path d="" fill="#FDFDFD" transform="translate(0,0)"/>
<path d="" fill="#FDFDFD" transform="translate(0,0)"/>
<path d="M0 0 C2 1 2 1 2 1 Z " fill="#FDFDFD" transform="translate(425,357)"/>
<path d="M0 0 C2 1 2 1 2 1 Z " fill="#FDFDFD" transform="translate(442,344)"/>
<path d="M0 0 C2 1 2 1 2 1 Z " fill="#FDFDFD" transform="translate(454,336)"/>
<path d="M0 0 C2 1 2 1 2 1 Z " fill="#FDFDFD" transform="translate(468,327)"/>
<path d="M0 0 C2 1 2 1 2 1 Z " fill="#FDFDFD" transform="translate(816,319)"/>
<path d="M0 0 C2 1 2 1 2 1 Z " fill="#FDFDFD" transform="translate(316,319)"/>
<path d="M0 0 C2 1 2 1 2 1 Z " fill="#FDFDFD" transform="translate(308,315)"/>
<path d="M0 0 C2 1 2 1 2 1 Z " fill="#FDFDFD" transform="translate(518,302)"/>
<path d="M0 0 C2 1 2 1 2 1 Z " fill="#FDFDFD" transform="translate(744,290)"/>
<path d="M0 0 C2 1 2 1 2 1 Z " fill="#FDFDFD" transform="translate(567,286)"/>
<path d="" fill="#FDFDFD" transform="translate(0,0)"/>
<path d="M0 0 C2 1 2 1 2 1 Z " fill="#FDFDFD" transform="translate(186,256)"/>
<path d="" fill="#FDFDFD" transform="translate(0,0)"/>
<path d="" fill="#FDFDFD" transform="translate(0,0)"/>
<path d="" fill="#FDFDFD" transform="translate(0,0)"/>
<path d="" fill="#FDFDFD" transform="translate(0,0)"/>
<path d="" fill="#FDFDFD" transform="translate(0,0)"/>
<path d="" fill="#FDFDFD" transform="translate(0,0)"/>
<path d="" fill="#FDFDFD" transform="translate(0,0)"/>
<path d="" fill="#FDFDFD" transform="translate(0,0)"/>
<path d="" fill="#FDFDFD" transform="translate(0,0)"/>
<path d="" fill="#FDFDFD" transform="translate(0,0)"/>
<path d="" fill="#FDFDFD" transform="translate(0,0)"/>
<path d="" fill="#FDFDFD" transform="translate(0,0)"/>
<path d="" fill="#CB1328" transform="translate(0,0)"/>
<path d="" fill="#FDFDFD" transform="translate(0,0)"/>
<path d="" fill="#FDFDFD" transform="translate(0,0)"/>
<path d="" fill="#FDFDFD" transform="translate(0,0)"/>
<path d="" fill="#FDFDFD" transform="translate(0,0)"/>
<path d="" fill="#CB1328" transform="translate(0,0)"/>
<path d="" fill="#FDFDFD" transform="translate(0,0)"/>
<path d="" fill="#FDFDFD" transform="translate(0,0)"/>
<path d="" fill="#FDFDFD" transform="translate(0,0)"/>
<path d="" fill="#FDFDFD" transform="translate(0,0)"/>
<path d="" fill="#CB1328" transform="translate(0,0)"/>
<path d="" fill="#FDFDFD" transform="translate(0,0)"/>
<path d="" fill="#FDFDFD" transform="translate(0,0)"/>
<path d="" fill="#FDFDFD" transform="translate(0,0)"/>
<path d="" fill="#FDFDFD" transform="translate(0,0)"/>
<path d="" fill="#FDFDFD" transform="translate(0,0)"/>
<path d="" fill="#CB1328" transform="translate(0,0)"/>
<path d="" fill="#FDFDFD" transform="translate(0,0)"/>
<path d="" fill="#FDFDFD" transform="translate(0,0)"/>
<path d="" fill="#CB1328" transform="translate(0,0)"/>
<path d="" fill="#CB1328" transform="translate(0,0)"/>
<path d="" fill="#FDFDFD" transform="translate(0,0)"/>
<path d="" fill="#CB1328" transform="translate(0,0)"/>
<path d="" fill="#CB1328" transform="translate(0,0)"/>
<path d="" fill="#FDFDFD" transform="translate(0,0)"/>
<path d="" fill="#CB1328" transform="translate(0,0)"/>
<path d="" fill="#CB1328" transform="translate(0,0)"/>
<path d="" fill="#FDFDFD" transform="translate(0,0)"/>
<path d="" fill="#CB1328" transform="translate(0,0)"/>
<path d="" fill="#CB1328" transform="translate(0,0)"/>
<path d="" fill="#CB1328" transform="translate(0,0)"/>
<path d="" fill="#CB1328" transform="translate(0,0)"/>
<path d="" fill="#CB1328" transform="translate(0,0)"/>
<path d="" fill="#CB1328" transform="translate(0,0)"/>
<path d="" fill="#CB1328" transform="translate(0,0)"/>
<path d="" fill="#CB1328" transform="translate(0,0)"/>
<path d="" fill="#FDFDFD" transform="translate(0,0)"/>
<path d="" fill="#FDFDFD" transform="translate(0,0)"/>
<path d="" fill="#FDFDFD" transform="translate(0,0)"/>
<path d="" fill="#FDFDFD" transform="translate(0,0)"/>
<path d="" fill="#FDFDFD" transform="translate(0,0)"/>
<path d="" fill="#FDFDFD" transform="translate(0,0)"/>
<path d="" fill="#FDFDFD" transform="translate(0,0)"/>
<path d="" fill="#FDFDFD" transform="translate(0,0)"/>
<path d="" fill="#FDFDFD" transform="translate(0,0)"/>
<path d="" fill="#FDFDFD" transform="translate(0,0)"/>
<path d="" fill="#CB1328" transform="translate(0,0)"/>
<path d="" fill="#FDFDFD" transform="translate(0,0)"/>
<path d="" fill="#FDFDFD" transform="translate(0,0)"/>
<path d="" fill="#FDFDFD" transform="translate(0,0)"/>
<path d="" fill="#FDFDFD" transform="translate(0,0)"/>
<path d="" fill="#FDFDFD" transform="translate(0,0)"/>
<path d="" fill="#FDFDFD" transform="translate(0,0)"/>
<path d="" fill="#FDFDFD" transform="translate(0,0)"/>
<path d="" fill="#FDFDFD" transform="translate(0,0)"/>
<path d="" fill="#FDFDFD" transform="translate(0,0)"/>
<path d="" fill="#FDFDFD" transform="translate(0,0)"/>
<path d="" fill="#FDFDFD" transform="translate(0,0)"/>
<path d="" fill="#CB1328" transform="translate(0,0)"/>
<path d="" fill="#CB1328" transform="translate(0,0)"/>
<path d="" fill="#CB1328" transform="translate(0,0)"/>
<path d="" fill="#CB1328" transform="translate(0,0)"/>
<path d="" fill="#CB1328" transform="translate(0,0)"/>
<path d="" fill="#CB1328" transform="translate(0,0)"/>
<path d="" fill="#CB1328" transform="translate(0,0)"/>
<path d="" fill="#CB1328" transform="translate(0,0)"/>
<path d="" fill="#CB1328" transform="translate(0,0)"/>
<path d="" fill="#CB1328" transform="translate(0,0)"/>
<path d="" fill="#CB1328" transform="translate(0,0)"/>
<path d="" fill="#CB1328" transform="translate(0,0)"/>
<path d="" fill="#CB1328" transform="translate(0,0)"/>
<path d="" fill="#CB1328" transform="translate(0,0)"/>
<path d="" fill="#CB1328" transform="translate(0,0)"/>
<path d="" fill="#CB1328" transform="translate(0,0)"/>
<path d="" fill="#CB1328" transform="translate(0,0)"/>
<path d="" fill="#CB1328" transform="translate(0,0)"/>
<path d="" fill="#CB1328" transform="translate(0,0)"/>
<path d="" fill="#CB1328" transform="translate(0,0)"/>
<path d="" fill="#FDFDFD" transform="translate(0,0)"/>
<path d="" fill="#FDFDFD" transform="translate(0,0)"/>
<path d="" fill="#CB1328" transform="translate(0,0)"/>
<path d="" fill="#FDFDFD" transform="translate(0,0)"/>
<path d="" fill="#FDFDFD" transform="translate(0,0)"/>
<path d="" fill="#FDFDFD" transform="translate(0,0)"/>
<path d="" fill="#CB1328" transform="translate(0,0)"/>
<path d="" fill="#FDFDFD" transform="translate(0,0)"/>
<path d="" fill="#FDFDFD" transform="translate(0,0)"/>
<path d="" fill="#FDFDFD" transform="translate(0,0)"/>
<path d="" fill="#FDFDFD" transform="translate(0,0)"/>
<path d="" fill="#FDFDFD" transform="translate(0,0)"/>
<path d="" fill="#FDFDFD" transform="translate(0,0)"/>
<path d="" fill="#FDFDFD" transform="translate(0,0)"/>
<path d="" fill="#FDFDFD" transform="translate(0,0)"/>
<path d="" fill="#FDFDFD" transform="translate(0,0)"/>
<path d="" fill="#CB1328" transform="translate(0,0)"/>
<path d="" fill="#FDFDFD" transform="translate(0,0)"/>
<path d="" fill="#FDFDFD" transform="translate(0,0)"/>
<path d="" fill="#CB1328" transform="translate(0,0)"/>
<path d="" fill="#FDFDFD" transform="translate(0,0)"/>
<path d="" fill="#FDFDFD" transform="translate(0,0)"/>
<path d="" fill="#FDFDFD" transform="translate(0,0)"/>
<path d="" fill="#FDFDFD" transform="translate(0,0)"/>
<path d="" fill="#FDFDFD" transform="translate(0,0)"/>
<path d="" fill="#CB1328" transform="translate(0,0)"/>
<path d="" fill="#CB1328" transform="translate(0,0)"/>
<path d="" fill="#CB1328" transform="translate(0,0)"/>
<path d="" fill="#CB1328" transform="translate(0,0)"/>
<path d="" fill="#CB1328" transform="translate(0,0)"/>
<path d="" fill="#CB1328" transform="translate(0,0)"/>
<path d="" fill="#CB1328" transform="translate(0,0)"/>
<path d="" fill="#CB1328" transform="translate(0,0)"/>
<path d="" fill="#CB1328" transform="translate(0,0)"/>
<path d="" fill="#CB1328" transform="translate(0,0)"/>
<path d="" fill="#CB1328" transform="translate(0,0)"/>
<path d="" fill="#CB1328" transform="translate(0,0)"/>
<path d="" fill="#CB1328" transform="translate(0,0)"/>
<path d="" fill="#CB1328" transform="translate(0,0)"/>
<path d="" fill="#CB1328" transform="translate(0,0)"/>
<path d="" fill="#CB1328" transform="translate(0,0)"/>
<path d="" fill="#CB1328" transform="translate(0,0)"/>
<path d="" fill="#CB1328" transform="translate(0,0)"/>
<path d="" fill="#CB1328" transform="translate(0,0)"/>
<path d="" fill="#CB1328" transform="translate(0,0)"/>
<path d="" fill="#CB1328" transform="translate(0,0)"/>
<path d="" fill="#CB1328" transform="translate(0,0)"/>
<path d="" fill="#CB1328" transform="translate(0,0)"/>
<path d="" fill="#CB1328" transform="translate(0,0)"/>
</svg>
